M48
METRIC,TZ
T1C0.762
T2C1.000
T3C1.100
%
G90
G05
T1
X104800Y-105010
X104800Y-112675
X104800Y-120340
X104820Y-102470
X104820Y-110135
X104820Y-117800
X106725Y-69340
X109265Y-69340
X111805Y-69340
X114345Y-69340
X116885Y-69340
X119425Y-69340
X121965Y-69340
X124505Y-69340
X127045Y-69340
X129585Y-69340
T2
X104800Y-125145
X104800Y-128410
X104800Y-131675
X104800Y-134940
X104800Y-138205
X104800Y-141470
X104800Y-144735
X116000Y-108780
X116000Y-111320
X116000Y-113860
X116000Y-116400
X116000Y-118940
X116000Y-121480
X116000Y-124020
X116000Y-126560
X116000Y-129100
X116000Y-131640
X116000Y-134180
X116000Y-136720
X116000Y-139260
X116000Y-141800
X116000Y-144340
X131240Y-108780
X131240Y-111320
X131240Y-113860
X131240Y-116400
X131240Y-118940
X131240Y-121480
X131240Y-124020
X131240Y-126560
X131240Y-129100
X131240Y-131640
X131240Y-134180
X131240Y-136720
X131240Y-139260
X131240Y-141800
X131240Y-144340
T3
X104820Y-86430
X104820Y-96590
X105690Y-62530
X108230Y-62530
X109235Y-86430
X109235Y-96590
X110770Y-62530
X114180Y-86430
X114180Y-96590
X118400Y-86400
X118400Y-96560
X125815Y-62825
X128355Y-62825
X130895Y-62825
M30
