M48
; DRILL file {KiCad 9.0.3} date 2025-09-22T17:12:55+1000
; FORMAT={-:-/ absolute / metric / decimal}
; #@! TF.CreationDate,2025-09-22T17:12:55+10:00
; #@! TF.GenerationSoftware,Kicad,Pcbnew,9.0.3
; #@! TF.FileFunction,Plated,1,2,PTH
FMAT,2
METRIC
; #@! TA.AperFunction,Plated,PTH,ComponentDrill
T1C0.762
; #@! TA.AperFunction,Plated,PTH,ComponentDrill
T2C1.000
; #@! TA.AperFunction,Plated,PTH,ComponentDrill
T3C1.100
%
G90
G05
T1
X104.8Y-105.01
X104.8Y-112.675
X104.8Y-120.34
X104.82Y-102.47
X104.82Y-110.135
X104.82Y-117.8
X106.725Y-69.34
X109.265Y-69.34
X111.805Y-69.34
X114.345Y-69.34
X116.885Y-69.34
X119.425Y-69.34
X121.965Y-69.34
X124.505Y-69.34
X127.045Y-69.34
X129.585Y-69.34
T2
X104.8Y-125.145
X104.8Y-128.41
X104.8Y-131.675
X104.8Y-134.94
X104.8Y-138.205
X104.8Y-141.47
X104.8Y-144.735
X116.0Y-108.78
X116.0Y-111.32
X116.0Y-113.86
X116.0Y-116.4
X116.0Y-118.94
X116.0Y-121.48
X116.0Y-124.02
X116.0Y-126.56
X116.0Y-129.1
X116.0Y-131.64
X116.0Y-134.18
X116.0Y-136.72
X116.0Y-139.26
X116.0Y-141.8
X116.0Y-144.34
X131.24Y-108.78
X131.24Y-111.32
X131.24Y-113.86
X131.24Y-116.4
X131.24Y-118.94
X131.24Y-121.48
X131.24Y-124.02
X131.24Y-126.56
X131.24Y-129.1
X131.24Y-131.64
X131.24Y-134.18
X131.24Y-136.72
X131.24Y-139.26
X131.24Y-141.8
X131.24Y-144.34
T3
X104.82Y-86.43
X104.82Y-96.59
X105.69Y-62.53
X108.23Y-62.53
X109.235Y-86.43
X109.235Y-96.59
X110.77Y-62.53
X114.18Y-86.43
X114.18Y-96.59
X118.4Y-86.4
X118.4Y-96.56
X125.815Y-62.825
X128.355Y-62.825
X130.895Y-62.825
M30
