%TF.GenerationSoftware,KiCad,Pcbnew,9.0.3*%
%TF.CreationDate,2025-09-22T17:12:55+10:00*%
%TF.ProjectId,BiasMeter_InputProtection_v3,42696173-4d65-4746-9572-5f496e707574,v3*%
%TF.SameCoordinates,Original*%
%TF.FileFunction,Legend,Top*%
%TF.FilePolarity,Positive*%
%FSLAX46Y46*%
G04 Gerber Fmt 4.6, Leading zero omitted, Abs format (unit mm)*
G04 Created by KiCad (PCBNEW 9.0.3) date 2025-09-22 17:12:55*
%MOMM*%
%LPD*%
G01*
G04 APERTURE LIST*
%ADD10C,0.150000*%
%ADD11C,0.120000*%
%ADD12C,0.200000*%
%ADD13C,0.100000*%
G04 APERTURE END LIST*
D10*
X112079874Y-108384295D02*
X112537017Y-108384295D01*
X112308445Y-109184295D02*
X112308445Y-108384295D01*
X112727493Y-108384295D02*
X113260827Y-109184295D01*
X113260827Y-108384295D02*
X112727493Y-109184295D01*
X113984636Y-109184295D02*
X113527493Y-109184295D01*
X113756065Y-109184295D02*
X113756065Y-108384295D01*
X113756065Y-108384295D02*
X113679874Y-108498580D01*
X113679874Y-108498580D02*
X113603684Y-108574771D01*
X113603684Y-108574771D02*
X113527493Y-108612866D01*
X132887969Y-141499295D02*
X133383207Y-141499295D01*
X133383207Y-141499295D02*
X133116541Y-141804057D01*
X133116541Y-141804057D02*
X133230826Y-141804057D01*
X133230826Y-141804057D02*
X133307017Y-141842152D01*
X133307017Y-141842152D02*
X133345112Y-141880247D01*
X133345112Y-141880247D02*
X133383207Y-141956438D01*
X133383207Y-141956438D02*
X133383207Y-142146914D01*
X133383207Y-142146914D02*
X133345112Y-142223104D01*
X133345112Y-142223104D02*
X133307017Y-142261200D01*
X133307017Y-142261200D02*
X133230826Y-142299295D01*
X133230826Y-142299295D02*
X133002255Y-142299295D01*
X133002255Y-142299295D02*
X132926064Y-142261200D01*
X132926064Y-142261200D02*
X132887969Y-142223104D01*
X133611779Y-141499295D02*
X133878446Y-142299295D01*
X133878446Y-142299295D02*
X134145112Y-141499295D01*
X134335588Y-141499295D02*
X134830826Y-141499295D01*
X134830826Y-141499295D02*
X134564160Y-141804057D01*
X134564160Y-141804057D02*
X134678445Y-141804057D01*
X134678445Y-141804057D02*
X134754636Y-141842152D01*
X134754636Y-141842152D02*
X134792731Y-141880247D01*
X134792731Y-141880247D02*
X134830826Y-141956438D01*
X134830826Y-141956438D02*
X134830826Y-142146914D01*
X134830826Y-142146914D02*
X134792731Y-142223104D01*
X134792731Y-142223104D02*
X134754636Y-142261200D01*
X134754636Y-142261200D02*
X134678445Y-142299295D01*
X134678445Y-142299295D02*
X134449874Y-142299295D01*
X134449874Y-142299295D02*
X134373683Y-142261200D01*
X134373683Y-142261200D02*
X134335588Y-142223104D01*
X112765589Y-137333224D02*
X112765589Y-136533224D01*
X112765589Y-136533224D02*
X112956065Y-136533224D01*
X112956065Y-136533224D02*
X113070351Y-136571319D01*
X113070351Y-136571319D02*
X113146541Y-136647509D01*
X113146541Y-136647509D02*
X113184636Y-136723700D01*
X113184636Y-136723700D02*
X113222732Y-136876081D01*
X113222732Y-136876081D02*
X113222732Y-136990367D01*
X113222732Y-136990367D02*
X113184636Y-137142748D01*
X113184636Y-137142748D02*
X113146541Y-137218938D01*
X113146541Y-137218938D02*
X113070351Y-137295129D01*
X113070351Y-137295129D02*
X112956065Y-137333224D01*
X112956065Y-137333224D02*
X112765589Y-137333224D01*
X113603684Y-137333224D02*
X113756065Y-137333224D01*
X113756065Y-137333224D02*
X113832255Y-137295129D01*
X113832255Y-137295129D02*
X113870351Y-137257033D01*
X113870351Y-137257033D02*
X113946541Y-137142748D01*
X113946541Y-137142748D02*
X113984636Y-136990367D01*
X113984636Y-136990367D02*
X113984636Y-136685605D01*
X113984636Y-136685605D02*
X113946541Y-136609414D01*
X113946541Y-136609414D02*
X113908446Y-136571319D01*
X113908446Y-136571319D02*
X113832255Y-136533224D01*
X113832255Y-136533224D02*
X113679874Y-136533224D01*
X113679874Y-136533224D02*
X113603684Y-136571319D01*
X113603684Y-136571319D02*
X113565589Y-136609414D01*
X113565589Y-136609414D02*
X113527493Y-136685605D01*
X113527493Y-136685605D02*
X113527493Y-136876081D01*
X113527493Y-136876081D02*
X113565589Y-136952271D01*
X113565589Y-136952271D02*
X113603684Y-136990367D01*
X113603684Y-136990367D02*
X113679874Y-137028462D01*
X113679874Y-137028462D02*
X113832255Y-137028462D01*
X113832255Y-137028462D02*
X113908446Y-136990367D01*
X113908446Y-136990367D02*
X113946541Y-136952271D01*
X113946541Y-136952271D02*
X113984636Y-136876081D01*
X112003684Y-142169295D02*
X112003684Y-141369295D01*
X112003684Y-141369295D02*
X112194160Y-141369295D01*
X112194160Y-141369295D02*
X112308446Y-141407390D01*
X112308446Y-141407390D02*
X112384636Y-141483580D01*
X112384636Y-141483580D02*
X112422731Y-141559771D01*
X112422731Y-141559771D02*
X112460827Y-141712152D01*
X112460827Y-141712152D02*
X112460827Y-141826438D01*
X112460827Y-141826438D02*
X112422731Y-141978819D01*
X112422731Y-141978819D02*
X112384636Y-142055009D01*
X112384636Y-142055009D02*
X112308446Y-142131200D01*
X112308446Y-142131200D02*
X112194160Y-142169295D01*
X112194160Y-142169295D02*
X112003684Y-142169295D01*
X113222731Y-142169295D02*
X112765588Y-142169295D01*
X112994160Y-142169295D02*
X112994160Y-141369295D01*
X112994160Y-141369295D02*
X112917969Y-141483580D01*
X112917969Y-141483580D02*
X112841779Y-141559771D01*
X112841779Y-141559771D02*
X112765588Y-141597866D01*
X113984636Y-142169295D02*
X113527493Y-142169295D01*
X113756065Y-142169295D02*
X113756065Y-141369295D01*
X113756065Y-141369295D02*
X113679874Y-141483580D01*
X113679874Y-141483580D02*
X113603684Y-141559771D01*
X113603684Y-141559771D02*
X113527493Y-141597866D01*
X112765589Y-132134295D02*
X112765589Y-131334295D01*
X112765589Y-131334295D02*
X112956065Y-131334295D01*
X112956065Y-131334295D02*
X113070351Y-131372390D01*
X113070351Y-131372390D02*
X113146541Y-131448580D01*
X113146541Y-131448580D02*
X113184636Y-131524771D01*
X113184636Y-131524771D02*
X113222732Y-131677152D01*
X113222732Y-131677152D02*
X113222732Y-131791438D01*
X113222732Y-131791438D02*
X113184636Y-131943819D01*
X113184636Y-131943819D02*
X113146541Y-132020009D01*
X113146541Y-132020009D02*
X113070351Y-132096200D01*
X113070351Y-132096200D02*
X112956065Y-132134295D01*
X112956065Y-132134295D02*
X112765589Y-132134295D01*
X113489398Y-131334295D02*
X114022732Y-131334295D01*
X114022732Y-131334295D02*
X113679874Y-132134295D01*
X112613208Y-114299295D02*
X112346541Y-113918342D01*
X112156065Y-114299295D02*
X112156065Y-113499295D01*
X112156065Y-113499295D02*
X112460827Y-113499295D01*
X112460827Y-113499295D02*
X112537017Y-113537390D01*
X112537017Y-113537390D02*
X112575112Y-113575485D01*
X112575112Y-113575485D02*
X112613208Y-113651676D01*
X112613208Y-113651676D02*
X112613208Y-113765961D01*
X112613208Y-113765961D02*
X112575112Y-113842152D01*
X112575112Y-113842152D02*
X112537017Y-113880247D01*
X112537017Y-113880247D02*
X112460827Y-113918342D01*
X112460827Y-113918342D02*
X112156065Y-113918342D01*
X112917969Y-114261200D02*
X113032255Y-114299295D01*
X113032255Y-114299295D02*
X113222731Y-114299295D01*
X113222731Y-114299295D02*
X113298922Y-114261200D01*
X113298922Y-114261200D02*
X113337017Y-114223104D01*
X113337017Y-114223104D02*
X113375112Y-114146914D01*
X113375112Y-114146914D02*
X113375112Y-114070723D01*
X113375112Y-114070723D02*
X113337017Y-113994533D01*
X113337017Y-113994533D02*
X113298922Y-113956438D01*
X113298922Y-113956438D02*
X113222731Y-113918342D01*
X113222731Y-113918342D02*
X113070350Y-113880247D01*
X113070350Y-113880247D02*
X112994160Y-113842152D01*
X112994160Y-113842152D02*
X112956065Y-113804057D01*
X112956065Y-113804057D02*
X112917969Y-113727866D01*
X112917969Y-113727866D02*
X112917969Y-113651676D01*
X112917969Y-113651676D02*
X112956065Y-113575485D01*
X112956065Y-113575485D02*
X112994160Y-113537390D01*
X112994160Y-113537390D02*
X113070350Y-113499295D01*
X113070350Y-113499295D02*
X113260827Y-113499295D01*
X113260827Y-113499295D02*
X113375112Y-113537390D01*
X113603684Y-113499295D02*
X114060827Y-113499295D01*
X113832255Y-114299295D02*
X113832255Y-113499295D01*
X132926064Y-137096794D02*
X133307017Y-137096794D01*
X132849874Y-137325366D02*
X133116541Y-136525366D01*
X133116541Y-136525366D02*
X133383207Y-137325366D01*
X133802255Y-136525366D02*
X133878445Y-136525366D01*
X133878445Y-136525366D02*
X133954636Y-136563461D01*
X133954636Y-136563461D02*
X133992731Y-136601556D01*
X133992731Y-136601556D02*
X134030826Y-136677747D01*
X134030826Y-136677747D02*
X134068921Y-136830128D01*
X134068921Y-136830128D02*
X134068921Y-137020604D01*
X134068921Y-137020604D02*
X134030826Y-137172985D01*
X134030826Y-137172985D02*
X133992731Y-137249175D01*
X133992731Y-137249175D02*
X133954636Y-137287271D01*
X133954636Y-137287271D02*
X133878445Y-137325366D01*
X133878445Y-137325366D02*
X133802255Y-137325366D01*
X133802255Y-137325366D02*
X133726064Y-137287271D01*
X133726064Y-137287271D02*
X133687969Y-137249175D01*
X133687969Y-137249175D02*
X133649874Y-137172985D01*
X133649874Y-137172985D02*
X133611778Y-137020604D01*
X133611778Y-137020604D02*
X133611778Y-136830128D01*
X133611778Y-136830128D02*
X133649874Y-136677747D01*
X133649874Y-136677747D02*
X133687969Y-136601556D01*
X133687969Y-136601556D02*
X133726064Y-136563461D01*
X133726064Y-136563461D02*
X133802255Y-136525366D01*
X112765589Y-119344295D02*
X112765589Y-118544295D01*
X112765589Y-118544295D02*
X112956065Y-118544295D01*
X112956065Y-118544295D02*
X113070351Y-118582390D01*
X113070351Y-118582390D02*
X113146541Y-118658580D01*
X113146541Y-118658580D02*
X113184636Y-118734771D01*
X113184636Y-118734771D02*
X113222732Y-118887152D01*
X113222732Y-118887152D02*
X113222732Y-119001438D01*
X113222732Y-119001438D02*
X113184636Y-119153819D01*
X113184636Y-119153819D02*
X113146541Y-119230009D01*
X113146541Y-119230009D02*
X113070351Y-119306200D01*
X113070351Y-119306200D02*
X112956065Y-119344295D01*
X112956065Y-119344295D02*
X112765589Y-119344295D01*
X113527493Y-118620485D02*
X113565589Y-118582390D01*
X113565589Y-118582390D02*
X113641779Y-118544295D01*
X113641779Y-118544295D02*
X113832255Y-118544295D01*
X113832255Y-118544295D02*
X113908446Y-118582390D01*
X113908446Y-118582390D02*
X113946541Y-118620485D01*
X113946541Y-118620485D02*
X113984636Y-118696676D01*
X113984636Y-118696676D02*
X113984636Y-118772866D01*
X113984636Y-118772866D02*
X113946541Y-118887152D01*
X113946541Y-118887152D02*
X113489398Y-119344295D01*
X113489398Y-119344295D02*
X113984636Y-119344295D01*
X133345112Y-116088224D02*
X132964160Y-116088224D01*
X132964160Y-116088224D02*
X132926064Y-116469176D01*
X132926064Y-116469176D02*
X132964160Y-116431081D01*
X132964160Y-116431081D02*
X133040350Y-116392986D01*
X133040350Y-116392986D02*
X133230826Y-116392986D01*
X133230826Y-116392986D02*
X133307017Y-116431081D01*
X133307017Y-116431081D02*
X133345112Y-116469176D01*
X133345112Y-116469176D02*
X133383207Y-116545367D01*
X133383207Y-116545367D02*
X133383207Y-116735843D01*
X133383207Y-116735843D02*
X133345112Y-116812033D01*
X133345112Y-116812033D02*
X133307017Y-116850129D01*
X133307017Y-116850129D02*
X133230826Y-116888224D01*
X133230826Y-116888224D02*
X133040350Y-116888224D01*
X133040350Y-116888224D02*
X132964160Y-116850129D01*
X132964160Y-116850129D02*
X132926064Y-116812033D01*
X133611779Y-116088224D02*
X133878446Y-116888224D01*
X133878446Y-116888224D02*
X134145112Y-116088224D01*
X133255826Y-62555247D02*
X133370112Y-62593342D01*
X133370112Y-62593342D02*
X133408207Y-62631438D01*
X133408207Y-62631438D02*
X133446303Y-62707628D01*
X133446303Y-62707628D02*
X133446303Y-62821914D01*
X133446303Y-62821914D02*
X133408207Y-62898104D01*
X133408207Y-62898104D02*
X133370112Y-62936200D01*
X133370112Y-62936200D02*
X133293922Y-62974295D01*
X133293922Y-62974295D02*
X132989160Y-62974295D01*
X132989160Y-62974295D02*
X132989160Y-62174295D01*
X132989160Y-62174295D02*
X133255826Y-62174295D01*
X133255826Y-62174295D02*
X133332017Y-62212390D01*
X133332017Y-62212390D02*
X133370112Y-62250485D01*
X133370112Y-62250485D02*
X133408207Y-62326676D01*
X133408207Y-62326676D02*
X133408207Y-62402866D01*
X133408207Y-62402866D02*
X133370112Y-62479057D01*
X133370112Y-62479057D02*
X133332017Y-62517152D01*
X133332017Y-62517152D02*
X133255826Y-62555247D01*
X133255826Y-62555247D02*
X132989160Y-62555247D01*
X132964160Y-144989295D02*
X132964160Y-144189295D01*
X132964160Y-144189295D02*
X133154636Y-144189295D01*
X133154636Y-144189295D02*
X133268922Y-144227390D01*
X133268922Y-144227390D02*
X133345112Y-144303580D01*
X133345112Y-144303580D02*
X133383207Y-144379771D01*
X133383207Y-144379771D02*
X133421303Y-144532152D01*
X133421303Y-144532152D02*
X133421303Y-144646438D01*
X133421303Y-144646438D02*
X133383207Y-144798819D01*
X133383207Y-144798819D02*
X133345112Y-144875009D01*
X133345112Y-144875009D02*
X133268922Y-144951200D01*
X133268922Y-144951200D02*
X133154636Y-144989295D01*
X133154636Y-144989295D02*
X132964160Y-144989295D01*
X134183207Y-144989295D02*
X133726064Y-144989295D01*
X133954636Y-144989295D02*
X133954636Y-144189295D01*
X133954636Y-144189295D02*
X133878445Y-144303580D01*
X133878445Y-144303580D02*
X133802255Y-144379771D01*
X133802255Y-144379771D02*
X133726064Y-144417866D01*
X134449874Y-144189295D02*
X134945112Y-144189295D01*
X134945112Y-144189295D02*
X134678446Y-144494057D01*
X134678446Y-144494057D02*
X134792731Y-144494057D01*
X134792731Y-144494057D02*
X134868922Y-144532152D01*
X134868922Y-144532152D02*
X134907017Y-144570247D01*
X134907017Y-144570247D02*
X134945112Y-144646438D01*
X134945112Y-144646438D02*
X134945112Y-144836914D01*
X134945112Y-144836914D02*
X134907017Y-144913104D01*
X134907017Y-144913104D02*
X134868922Y-144951200D01*
X134868922Y-144951200D02*
X134792731Y-144989295D01*
X134792731Y-144989295D02*
X134564160Y-144989295D01*
X134564160Y-144989295D02*
X134487969Y-144951200D01*
X134487969Y-144951200D02*
X134449874Y-144913104D01*
X112765589Y-134544295D02*
X112765589Y-133744295D01*
X112765589Y-133744295D02*
X112956065Y-133744295D01*
X112956065Y-133744295D02*
X113070351Y-133782390D01*
X113070351Y-133782390D02*
X113146541Y-133858580D01*
X113146541Y-133858580D02*
X113184636Y-133934771D01*
X113184636Y-133934771D02*
X113222732Y-134087152D01*
X113222732Y-134087152D02*
X113222732Y-134201438D01*
X113222732Y-134201438D02*
X113184636Y-134353819D01*
X113184636Y-134353819D02*
X113146541Y-134430009D01*
X113146541Y-134430009D02*
X113070351Y-134506200D01*
X113070351Y-134506200D02*
X112956065Y-134544295D01*
X112956065Y-134544295D02*
X112765589Y-134544295D01*
X113679874Y-134087152D02*
X113603684Y-134049057D01*
X113603684Y-134049057D02*
X113565589Y-134010961D01*
X113565589Y-134010961D02*
X113527493Y-133934771D01*
X113527493Y-133934771D02*
X113527493Y-133896676D01*
X113527493Y-133896676D02*
X113565589Y-133820485D01*
X113565589Y-133820485D02*
X113603684Y-133782390D01*
X113603684Y-133782390D02*
X113679874Y-133744295D01*
X113679874Y-133744295D02*
X113832255Y-133744295D01*
X113832255Y-133744295D02*
X113908446Y-133782390D01*
X113908446Y-133782390D02*
X113946541Y-133820485D01*
X113946541Y-133820485D02*
X113984636Y-133896676D01*
X113984636Y-133896676D02*
X113984636Y-133934771D01*
X113984636Y-133934771D02*
X113946541Y-134010961D01*
X113946541Y-134010961D02*
X113908446Y-134049057D01*
X113908446Y-134049057D02*
X113832255Y-134087152D01*
X113832255Y-134087152D02*
X113679874Y-134087152D01*
X113679874Y-134087152D02*
X113603684Y-134125247D01*
X113603684Y-134125247D02*
X113565589Y-134163342D01*
X113565589Y-134163342D02*
X113527493Y-134239533D01*
X113527493Y-134239533D02*
X113527493Y-134391914D01*
X113527493Y-134391914D02*
X113565589Y-134468104D01*
X113565589Y-134468104D02*
X113603684Y-134506200D01*
X113603684Y-134506200D02*
X113679874Y-134544295D01*
X113679874Y-134544295D02*
X113832255Y-134544295D01*
X113832255Y-134544295D02*
X113908446Y-134506200D01*
X113908446Y-134506200D02*
X113946541Y-134468104D01*
X113946541Y-134468104D02*
X113984636Y-134391914D01*
X113984636Y-134391914D02*
X113984636Y-134239533D01*
X113984636Y-134239533D02*
X113946541Y-134163342D01*
X113946541Y-134163342D02*
X113908446Y-134125247D01*
X113908446Y-134125247D02*
X113832255Y-134087152D01*
X112765589Y-129489295D02*
X112765589Y-128689295D01*
X112765589Y-128689295D02*
X112956065Y-128689295D01*
X112956065Y-128689295D02*
X113070351Y-128727390D01*
X113070351Y-128727390D02*
X113146541Y-128803580D01*
X113146541Y-128803580D02*
X113184636Y-128879771D01*
X113184636Y-128879771D02*
X113222732Y-129032152D01*
X113222732Y-129032152D02*
X113222732Y-129146438D01*
X113222732Y-129146438D02*
X113184636Y-129298819D01*
X113184636Y-129298819D02*
X113146541Y-129375009D01*
X113146541Y-129375009D02*
X113070351Y-129451200D01*
X113070351Y-129451200D02*
X112956065Y-129489295D01*
X112956065Y-129489295D02*
X112765589Y-129489295D01*
X113908446Y-128689295D02*
X113756065Y-128689295D01*
X113756065Y-128689295D02*
X113679874Y-128727390D01*
X113679874Y-128727390D02*
X113641779Y-128765485D01*
X113641779Y-128765485D02*
X113565589Y-128879771D01*
X113565589Y-128879771D02*
X113527493Y-129032152D01*
X113527493Y-129032152D02*
X113527493Y-129336914D01*
X113527493Y-129336914D02*
X113565589Y-129413104D01*
X113565589Y-129413104D02*
X113603684Y-129451200D01*
X113603684Y-129451200D02*
X113679874Y-129489295D01*
X113679874Y-129489295D02*
X113832255Y-129489295D01*
X113832255Y-129489295D02*
X113908446Y-129451200D01*
X113908446Y-129451200D02*
X113946541Y-129413104D01*
X113946541Y-129413104D02*
X113984636Y-129336914D01*
X113984636Y-129336914D02*
X113984636Y-129146438D01*
X113984636Y-129146438D02*
X113946541Y-129070247D01*
X113946541Y-129070247D02*
X113908446Y-129032152D01*
X113908446Y-129032152D02*
X113832255Y-128994057D01*
X113832255Y-128994057D02*
X113679874Y-128994057D01*
X113679874Y-128994057D02*
X113603684Y-129032152D01*
X113603684Y-129032152D02*
X113565589Y-129070247D01*
X113565589Y-129070247D02*
X113527493Y-129146438D01*
X112003684Y-144929295D02*
X112003684Y-144129295D01*
X112003684Y-144129295D02*
X112194160Y-144129295D01*
X112194160Y-144129295D02*
X112308446Y-144167390D01*
X112308446Y-144167390D02*
X112384636Y-144243580D01*
X112384636Y-144243580D02*
X112422731Y-144319771D01*
X112422731Y-144319771D02*
X112460827Y-144472152D01*
X112460827Y-144472152D02*
X112460827Y-144586438D01*
X112460827Y-144586438D02*
X112422731Y-144738819D01*
X112422731Y-144738819D02*
X112384636Y-144815009D01*
X112384636Y-144815009D02*
X112308446Y-144891200D01*
X112308446Y-144891200D02*
X112194160Y-144929295D01*
X112194160Y-144929295D02*
X112003684Y-144929295D01*
X113222731Y-144929295D02*
X112765588Y-144929295D01*
X112994160Y-144929295D02*
X112994160Y-144129295D01*
X112994160Y-144129295D02*
X112917969Y-144243580D01*
X112917969Y-144243580D02*
X112841779Y-144319771D01*
X112841779Y-144319771D02*
X112765588Y-144357866D01*
X113527493Y-144205485D02*
X113565589Y-144167390D01*
X113565589Y-144167390D02*
X113641779Y-144129295D01*
X113641779Y-144129295D02*
X113832255Y-144129295D01*
X113832255Y-144129295D02*
X113908446Y-144167390D01*
X113908446Y-144167390D02*
X113946541Y-144205485D01*
X113946541Y-144205485D02*
X113984636Y-144281676D01*
X113984636Y-144281676D02*
X113984636Y-144357866D01*
X113984636Y-144357866D02*
X113946541Y-144472152D01*
X113946541Y-144472152D02*
X113489398Y-144929295D01*
X113489398Y-144929295D02*
X113984636Y-144929295D01*
X132926064Y-121768937D02*
X133307017Y-121768937D01*
X132849874Y-121997509D02*
X133116541Y-121197509D01*
X133116541Y-121197509D02*
X133383207Y-121997509D01*
X133992731Y-121197509D02*
X133840350Y-121197509D01*
X133840350Y-121197509D02*
X133764159Y-121235604D01*
X133764159Y-121235604D02*
X133726064Y-121273699D01*
X133726064Y-121273699D02*
X133649874Y-121387985D01*
X133649874Y-121387985D02*
X133611778Y-121540366D01*
X133611778Y-121540366D02*
X133611778Y-121845128D01*
X133611778Y-121845128D02*
X133649874Y-121921318D01*
X133649874Y-121921318D02*
X133687969Y-121959414D01*
X133687969Y-121959414D02*
X133764159Y-121997509D01*
X133764159Y-121997509D02*
X133916540Y-121997509D01*
X133916540Y-121997509D02*
X133992731Y-121959414D01*
X133992731Y-121959414D02*
X134030826Y-121921318D01*
X134030826Y-121921318D02*
X134068921Y-121845128D01*
X134068921Y-121845128D02*
X134068921Y-121654652D01*
X134068921Y-121654652D02*
X134030826Y-121578461D01*
X134030826Y-121578461D02*
X133992731Y-121540366D01*
X133992731Y-121540366D02*
X133916540Y-121502271D01*
X133916540Y-121502271D02*
X133764159Y-121502271D01*
X133764159Y-121502271D02*
X133687969Y-121540366D01*
X133687969Y-121540366D02*
X133649874Y-121578461D01*
X133649874Y-121578461D02*
X133611778Y-121654652D01*
X132926064Y-129355723D02*
X133307017Y-129355723D01*
X132849874Y-129584295D02*
X133116541Y-128784295D01*
X133116541Y-128784295D02*
X133383207Y-129584295D01*
X133573683Y-128784295D02*
X134068921Y-128784295D01*
X134068921Y-128784295D02*
X133802255Y-129089057D01*
X133802255Y-129089057D02*
X133916540Y-129089057D01*
X133916540Y-129089057D02*
X133992731Y-129127152D01*
X133992731Y-129127152D02*
X134030826Y-129165247D01*
X134030826Y-129165247D02*
X134068921Y-129241438D01*
X134068921Y-129241438D02*
X134068921Y-129431914D01*
X134068921Y-129431914D02*
X134030826Y-129508104D01*
X134030826Y-129508104D02*
X133992731Y-129546200D01*
X133992731Y-129546200D02*
X133916540Y-129584295D01*
X133916540Y-129584295D02*
X133687969Y-129584295D01*
X133687969Y-129584295D02*
X133611778Y-129546200D01*
X133611778Y-129546200D02*
X133573683Y-129508104D01*
X123646303Y-62974295D02*
X123379636Y-62593342D01*
X123189160Y-62974295D02*
X123189160Y-62174295D01*
X123189160Y-62174295D02*
X123493922Y-62174295D01*
X123493922Y-62174295D02*
X123570112Y-62212390D01*
X123570112Y-62212390D02*
X123608207Y-62250485D01*
X123608207Y-62250485D02*
X123646303Y-62326676D01*
X123646303Y-62326676D02*
X123646303Y-62440961D01*
X123646303Y-62440961D02*
X123608207Y-62517152D01*
X123608207Y-62517152D02*
X123570112Y-62555247D01*
X123570112Y-62555247D02*
X123493922Y-62593342D01*
X123493922Y-62593342D02*
X123189160Y-62593342D01*
X133383207Y-110987390D02*
X133307017Y-110949295D01*
X133307017Y-110949295D02*
X133192731Y-110949295D01*
X133192731Y-110949295D02*
X133078445Y-110987390D01*
X133078445Y-110987390D02*
X133002255Y-111063580D01*
X133002255Y-111063580D02*
X132964160Y-111139771D01*
X132964160Y-111139771D02*
X132926064Y-111292152D01*
X132926064Y-111292152D02*
X132926064Y-111406438D01*
X132926064Y-111406438D02*
X132964160Y-111558819D01*
X132964160Y-111558819D02*
X133002255Y-111635009D01*
X133002255Y-111635009D02*
X133078445Y-111711200D01*
X133078445Y-111711200D02*
X133192731Y-111749295D01*
X133192731Y-111749295D02*
X133268922Y-111749295D01*
X133268922Y-111749295D02*
X133383207Y-111711200D01*
X133383207Y-111711200D02*
X133421303Y-111673104D01*
X133421303Y-111673104D02*
X133421303Y-111406438D01*
X133421303Y-111406438D02*
X133268922Y-111406438D01*
X133764160Y-111749295D02*
X133764160Y-110949295D01*
X133764160Y-110949295D02*
X134221303Y-111749295D01*
X134221303Y-111749295D02*
X134221303Y-110949295D01*
X134602255Y-111749295D02*
X134602255Y-110949295D01*
X134602255Y-110949295D02*
X134792731Y-110949295D01*
X134792731Y-110949295D02*
X134907017Y-110987390D01*
X134907017Y-110987390D02*
X134983207Y-111063580D01*
X134983207Y-111063580D02*
X135021302Y-111139771D01*
X135021302Y-111139771D02*
X135059398Y-111292152D01*
X135059398Y-111292152D02*
X135059398Y-111406438D01*
X135059398Y-111406438D02*
X135021302Y-111558819D01*
X135021302Y-111558819D02*
X134983207Y-111635009D01*
X134983207Y-111635009D02*
X134907017Y-111711200D01*
X134907017Y-111711200D02*
X134792731Y-111749295D01*
X134792731Y-111749295D02*
X134602255Y-111749295D01*
X132926064Y-124323580D02*
X133307017Y-124323580D01*
X132849874Y-124552152D02*
X133116541Y-123752152D01*
X133116541Y-123752152D02*
X133383207Y-124552152D01*
X134030826Y-123752152D02*
X133649874Y-123752152D01*
X133649874Y-123752152D02*
X133611778Y-124133104D01*
X133611778Y-124133104D02*
X133649874Y-124095009D01*
X133649874Y-124095009D02*
X133726064Y-124056914D01*
X133726064Y-124056914D02*
X133916540Y-124056914D01*
X133916540Y-124056914D02*
X133992731Y-124095009D01*
X133992731Y-124095009D02*
X134030826Y-124133104D01*
X134030826Y-124133104D02*
X134068921Y-124209295D01*
X134068921Y-124209295D02*
X134068921Y-124399771D01*
X134068921Y-124399771D02*
X134030826Y-124475961D01*
X134030826Y-124475961D02*
X133992731Y-124514057D01*
X133992731Y-124514057D02*
X133916540Y-124552152D01*
X133916540Y-124552152D02*
X133726064Y-124552152D01*
X133726064Y-124552152D02*
X133649874Y-124514057D01*
X133649874Y-124514057D02*
X133611778Y-124475961D01*
X112308446Y-116147390D02*
X112232256Y-116109295D01*
X112232256Y-116109295D02*
X112117970Y-116109295D01*
X112117970Y-116109295D02*
X112003684Y-116147390D01*
X112003684Y-116147390D02*
X111927494Y-116223580D01*
X111927494Y-116223580D02*
X111889399Y-116299771D01*
X111889399Y-116299771D02*
X111851303Y-116452152D01*
X111851303Y-116452152D02*
X111851303Y-116566438D01*
X111851303Y-116566438D02*
X111889399Y-116718819D01*
X111889399Y-116718819D02*
X111927494Y-116795009D01*
X111927494Y-116795009D02*
X112003684Y-116871200D01*
X112003684Y-116871200D02*
X112117970Y-116909295D01*
X112117970Y-116909295D02*
X112194161Y-116909295D01*
X112194161Y-116909295D02*
X112308446Y-116871200D01*
X112308446Y-116871200D02*
X112346542Y-116833104D01*
X112346542Y-116833104D02*
X112346542Y-116566438D01*
X112346542Y-116566438D02*
X112194161Y-116566438D01*
X112689399Y-116909295D02*
X112689399Y-116109295D01*
X112689399Y-116109295D02*
X113146542Y-116909295D01*
X113146542Y-116909295D02*
X113146542Y-116109295D01*
X113527494Y-116909295D02*
X113527494Y-116109295D01*
X113527494Y-116109295D02*
X113717970Y-116109295D01*
X113717970Y-116109295D02*
X113832256Y-116147390D01*
X113832256Y-116147390D02*
X113908446Y-116223580D01*
X113908446Y-116223580D02*
X113946541Y-116299771D01*
X113946541Y-116299771D02*
X113984637Y-116452152D01*
X113984637Y-116452152D02*
X113984637Y-116566438D01*
X113984637Y-116566438D02*
X113946541Y-116718819D01*
X113946541Y-116718819D02*
X113908446Y-116795009D01*
X113908446Y-116795009D02*
X113832256Y-116871200D01*
X113832256Y-116871200D02*
X113717970Y-116909295D01*
X113717970Y-116909295D02*
X113527494Y-116909295D01*
X132849874Y-108419295D02*
X133116541Y-109219295D01*
X133116541Y-109219295D02*
X133383207Y-108419295D01*
X133649874Y-109219295D02*
X133649874Y-108419295D01*
X134030826Y-109219295D02*
X134030826Y-108419295D01*
X134030826Y-108419295D02*
X134487969Y-109219295D01*
X134487969Y-109219295D02*
X134487969Y-108419295D01*
X132926064Y-126878223D02*
X133307017Y-126878223D01*
X132849874Y-127106795D02*
X133116541Y-126306795D01*
X133116541Y-126306795D02*
X133383207Y-127106795D01*
X133992731Y-126573461D02*
X133992731Y-127106795D01*
X133802255Y-126268700D02*
X133611778Y-126840128D01*
X133611778Y-126840128D02*
X134107017Y-126840128D01*
X112765589Y-126909295D02*
X112765589Y-126109295D01*
X112765589Y-126109295D02*
X112956065Y-126109295D01*
X112956065Y-126109295D02*
X113070351Y-126147390D01*
X113070351Y-126147390D02*
X113146541Y-126223580D01*
X113146541Y-126223580D02*
X113184636Y-126299771D01*
X113184636Y-126299771D02*
X113222732Y-126452152D01*
X113222732Y-126452152D02*
X113222732Y-126566438D01*
X113222732Y-126566438D02*
X113184636Y-126718819D01*
X113184636Y-126718819D02*
X113146541Y-126795009D01*
X113146541Y-126795009D02*
X113070351Y-126871200D01*
X113070351Y-126871200D02*
X112956065Y-126909295D01*
X112956065Y-126909295D02*
X112765589Y-126909295D01*
X113946541Y-126109295D02*
X113565589Y-126109295D01*
X113565589Y-126109295D02*
X113527493Y-126490247D01*
X113527493Y-126490247D02*
X113565589Y-126452152D01*
X113565589Y-126452152D02*
X113641779Y-126414057D01*
X113641779Y-126414057D02*
X113832255Y-126414057D01*
X113832255Y-126414057D02*
X113908446Y-126452152D01*
X113908446Y-126452152D02*
X113946541Y-126490247D01*
X113946541Y-126490247D02*
X113984636Y-126566438D01*
X113984636Y-126566438D02*
X113984636Y-126756914D01*
X113984636Y-126756914D02*
X113946541Y-126833104D01*
X113946541Y-126833104D02*
X113908446Y-126871200D01*
X113908446Y-126871200D02*
X113832255Y-126909295D01*
X113832255Y-126909295D02*
X113641779Y-126909295D01*
X113641779Y-126909295D02*
X113565589Y-126871200D01*
X113565589Y-126871200D02*
X113527493Y-126833104D01*
X103315826Y-62555247D02*
X103430112Y-62593342D01*
X103430112Y-62593342D02*
X103468207Y-62631438D01*
X103468207Y-62631438D02*
X103506303Y-62707628D01*
X103506303Y-62707628D02*
X103506303Y-62821914D01*
X103506303Y-62821914D02*
X103468207Y-62898104D01*
X103468207Y-62898104D02*
X103430112Y-62936200D01*
X103430112Y-62936200D02*
X103353922Y-62974295D01*
X103353922Y-62974295D02*
X103049160Y-62974295D01*
X103049160Y-62974295D02*
X103049160Y-62174295D01*
X103049160Y-62174295D02*
X103315826Y-62174295D01*
X103315826Y-62174295D02*
X103392017Y-62212390D01*
X103392017Y-62212390D02*
X103430112Y-62250485D01*
X103430112Y-62250485D02*
X103468207Y-62326676D01*
X103468207Y-62326676D02*
X103468207Y-62402866D01*
X103468207Y-62402866D02*
X103430112Y-62479057D01*
X103430112Y-62479057D02*
X103392017Y-62517152D01*
X103392017Y-62517152D02*
X103315826Y-62555247D01*
X103315826Y-62555247D02*
X103049160Y-62555247D01*
X112003684Y-139689295D02*
X112003684Y-138889295D01*
X112003684Y-138889295D02*
X112194160Y-138889295D01*
X112194160Y-138889295D02*
X112308446Y-138927390D01*
X112308446Y-138927390D02*
X112384636Y-139003580D01*
X112384636Y-139003580D02*
X112422731Y-139079771D01*
X112422731Y-139079771D02*
X112460827Y-139232152D01*
X112460827Y-139232152D02*
X112460827Y-139346438D01*
X112460827Y-139346438D02*
X112422731Y-139498819D01*
X112422731Y-139498819D02*
X112384636Y-139575009D01*
X112384636Y-139575009D02*
X112308446Y-139651200D01*
X112308446Y-139651200D02*
X112194160Y-139689295D01*
X112194160Y-139689295D02*
X112003684Y-139689295D01*
X113222731Y-139689295D02*
X112765588Y-139689295D01*
X112994160Y-139689295D02*
X112994160Y-138889295D01*
X112994160Y-138889295D02*
X112917969Y-139003580D01*
X112917969Y-139003580D02*
X112841779Y-139079771D01*
X112841779Y-139079771D02*
X112765588Y-139117866D01*
X113717970Y-138889295D02*
X113794160Y-138889295D01*
X113794160Y-138889295D02*
X113870351Y-138927390D01*
X113870351Y-138927390D02*
X113908446Y-138965485D01*
X113908446Y-138965485D02*
X113946541Y-139041676D01*
X113946541Y-139041676D02*
X113984636Y-139194057D01*
X113984636Y-139194057D02*
X113984636Y-139384533D01*
X113984636Y-139384533D02*
X113946541Y-139536914D01*
X113946541Y-139536914D02*
X113908446Y-139613104D01*
X113908446Y-139613104D02*
X113870351Y-139651200D01*
X113870351Y-139651200D02*
X113794160Y-139689295D01*
X113794160Y-139689295D02*
X113717970Y-139689295D01*
X113717970Y-139689295D02*
X113641779Y-139651200D01*
X113641779Y-139651200D02*
X113603684Y-139613104D01*
X113603684Y-139613104D02*
X113565589Y-139536914D01*
X113565589Y-139536914D02*
X113527493Y-139384533D01*
X113527493Y-139384533D02*
X113527493Y-139194057D01*
X113527493Y-139194057D02*
X113565589Y-139041676D01*
X113565589Y-139041676D02*
X113603684Y-138965485D01*
X113603684Y-138965485D02*
X113641779Y-138927390D01*
X113641779Y-138927390D02*
X113717970Y-138889295D01*
X133421303Y-114333581D02*
X133154636Y-113952628D01*
X132964160Y-114333581D02*
X132964160Y-113533581D01*
X132964160Y-113533581D02*
X133268922Y-113533581D01*
X133268922Y-113533581D02*
X133345112Y-113571676D01*
X133345112Y-113571676D02*
X133383207Y-113609771D01*
X133383207Y-113609771D02*
X133421303Y-113685962D01*
X133421303Y-113685962D02*
X133421303Y-113800247D01*
X133421303Y-113800247D02*
X133383207Y-113876438D01*
X133383207Y-113876438D02*
X133345112Y-113914533D01*
X133345112Y-113914533D02*
X133268922Y-113952628D01*
X133268922Y-113952628D02*
X132964160Y-113952628D01*
X133726064Y-114295486D02*
X133840350Y-114333581D01*
X133840350Y-114333581D02*
X134030826Y-114333581D01*
X134030826Y-114333581D02*
X134107017Y-114295486D01*
X134107017Y-114295486D02*
X134145112Y-114257390D01*
X134145112Y-114257390D02*
X134183207Y-114181200D01*
X134183207Y-114181200D02*
X134183207Y-114105009D01*
X134183207Y-114105009D02*
X134145112Y-114028819D01*
X134145112Y-114028819D02*
X134107017Y-113990724D01*
X134107017Y-113990724D02*
X134030826Y-113952628D01*
X134030826Y-113952628D02*
X133878445Y-113914533D01*
X133878445Y-113914533D02*
X133802255Y-113876438D01*
X133802255Y-113876438D02*
X133764160Y-113838343D01*
X133764160Y-113838343D02*
X133726064Y-113762152D01*
X133726064Y-113762152D02*
X133726064Y-113685962D01*
X133726064Y-113685962D02*
X133764160Y-113609771D01*
X133764160Y-113609771D02*
X133802255Y-113571676D01*
X133802255Y-113571676D02*
X133878445Y-113533581D01*
X133878445Y-113533581D02*
X134068922Y-113533581D01*
X134068922Y-113533581D02*
X134183207Y-113571676D01*
X134411779Y-113533581D02*
X134868922Y-113533581D01*
X134640350Y-114333581D02*
X134640350Y-113533581D01*
X132926064Y-131935723D02*
X133307017Y-131935723D01*
X132849874Y-132164295D02*
X133116541Y-131364295D01*
X133116541Y-131364295D02*
X133383207Y-132164295D01*
X133611778Y-131440485D02*
X133649874Y-131402390D01*
X133649874Y-131402390D02*
X133726064Y-131364295D01*
X133726064Y-131364295D02*
X133916540Y-131364295D01*
X133916540Y-131364295D02*
X133992731Y-131402390D01*
X133992731Y-131402390D02*
X134030826Y-131440485D01*
X134030826Y-131440485D02*
X134068921Y-131516676D01*
X134068921Y-131516676D02*
X134068921Y-131592866D01*
X134068921Y-131592866D02*
X134030826Y-131707152D01*
X134030826Y-131707152D02*
X133573683Y-132164295D01*
X133573683Y-132164295D02*
X134068921Y-132164295D01*
X127666541Y-65083342D02*
X127666541Y-65464295D01*
X127399874Y-64664295D02*
X127666541Y-65083342D01*
X127666541Y-65083342D02*
X127933207Y-64664295D01*
X128771302Y-64626200D02*
X128085588Y-65654771D01*
X128961778Y-64664295D02*
X129152254Y-65464295D01*
X129152254Y-65464295D02*
X129304635Y-64892866D01*
X129304635Y-64892866D02*
X129457016Y-65464295D01*
X129457016Y-65464295D02*
X129647493Y-64664295D01*
X112765589Y-121949295D02*
X112765589Y-121149295D01*
X112765589Y-121149295D02*
X112956065Y-121149295D01*
X112956065Y-121149295D02*
X113070351Y-121187390D01*
X113070351Y-121187390D02*
X113146541Y-121263580D01*
X113146541Y-121263580D02*
X113184636Y-121339771D01*
X113184636Y-121339771D02*
X113222732Y-121492152D01*
X113222732Y-121492152D02*
X113222732Y-121606438D01*
X113222732Y-121606438D02*
X113184636Y-121758819D01*
X113184636Y-121758819D02*
X113146541Y-121835009D01*
X113146541Y-121835009D02*
X113070351Y-121911200D01*
X113070351Y-121911200D02*
X112956065Y-121949295D01*
X112956065Y-121949295D02*
X112765589Y-121949295D01*
X113489398Y-121149295D02*
X113984636Y-121149295D01*
X113984636Y-121149295D02*
X113717970Y-121454057D01*
X113717970Y-121454057D02*
X113832255Y-121454057D01*
X113832255Y-121454057D02*
X113908446Y-121492152D01*
X113908446Y-121492152D02*
X113946541Y-121530247D01*
X113946541Y-121530247D02*
X113984636Y-121606438D01*
X113984636Y-121606438D02*
X113984636Y-121796914D01*
X113984636Y-121796914D02*
X113946541Y-121873104D01*
X113946541Y-121873104D02*
X113908446Y-121911200D01*
X113908446Y-121911200D02*
X113832255Y-121949295D01*
X113832255Y-121949295D02*
X113603684Y-121949295D01*
X113603684Y-121949295D02*
X113527493Y-121911200D01*
X113527493Y-121911200D02*
X113489398Y-121873104D01*
X112765589Y-124374295D02*
X112765589Y-123574295D01*
X112765589Y-123574295D02*
X112956065Y-123574295D01*
X112956065Y-123574295D02*
X113070351Y-123612390D01*
X113070351Y-123612390D02*
X113146541Y-123688580D01*
X113146541Y-123688580D02*
X113184636Y-123764771D01*
X113184636Y-123764771D02*
X113222732Y-123917152D01*
X113222732Y-123917152D02*
X113222732Y-124031438D01*
X113222732Y-124031438D02*
X113184636Y-124183819D01*
X113184636Y-124183819D02*
X113146541Y-124260009D01*
X113146541Y-124260009D02*
X113070351Y-124336200D01*
X113070351Y-124336200D02*
X112956065Y-124374295D01*
X112956065Y-124374295D02*
X112765589Y-124374295D01*
X113908446Y-123840961D02*
X113908446Y-124374295D01*
X113717970Y-123536200D02*
X113527493Y-124107628D01*
X113527493Y-124107628D02*
X114022732Y-124107628D01*
X108381303Y-65464295D02*
X108114636Y-65083342D01*
X107924160Y-65464295D02*
X107924160Y-64664295D01*
X107924160Y-64664295D02*
X108228922Y-64664295D01*
X108228922Y-64664295D02*
X108305112Y-64702390D01*
X108305112Y-64702390D02*
X108343207Y-64740485D01*
X108343207Y-64740485D02*
X108381303Y-64816676D01*
X108381303Y-64816676D02*
X108381303Y-64930961D01*
X108381303Y-64930961D02*
X108343207Y-65007152D01*
X108343207Y-65007152D02*
X108305112Y-65045247D01*
X108305112Y-65045247D02*
X108228922Y-65083342D01*
X108228922Y-65083342D02*
X107924160Y-65083342D01*
X113041541Y-62593342D02*
X113041541Y-62974295D01*
X112774874Y-62174295D02*
X113041541Y-62593342D01*
X113041541Y-62593342D02*
X113308207Y-62174295D01*
X114146302Y-62136200D02*
X113460588Y-63164771D01*
X114336778Y-62174295D02*
X114527254Y-62974295D01*
X114527254Y-62974295D02*
X114679635Y-62402866D01*
X114679635Y-62402866D02*
X114832016Y-62974295D01*
X114832016Y-62974295D02*
X115022493Y-62174295D01*
X132926064Y-134345723D02*
X133307017Y-134345723D01*
X132849874Y-134574295D02*
X133116541Y-133774295D01*
X133116541Y-133774295D02*
X133383207Y-134574295D01*
X134068921Y-134574295D02*
X133611778Y-134574295D01*
X133840350Y-134574295D02*
X133840350Y-133774295D01*
X133840350Y-133774295D02*
X133764159Y-133888580D01*
X133764159Y-133888580D02*
X133687969Y-133964771D01*
X133687969Y-133964771D02*
X133611778Y-134002866D01*
X132926064Y-119214294D02*
X133307017Y-119214294D01*
X132849874Y-119442866D02*
X133116541Y-118642866D01*
X133116541Y-118642866D02*
X133383207Y-119442866D01*
X133573683Y-118642866D02*
X134107017Y-118642866D01*
X134107017Y-118642866D02*
X133764159Y-119442866D01*
X133421303Y-139639295D02*
X133154636Y-139258342D01*
X132964160Y-139639295D02*
X132964160Y-138839295D01*
X132964160Y-138839295D02*
X133268922Y-138839295D01*
X133268922Y-138839295D02*
X133345112Y-138877390D01*
X133345112Y-138877390D02*
X133383207Y-138915485D01*
X133383207Y-138915485D02*
X133421303Y-138991676D01*
X133421303Y-138991676D02*
X133421303Y-139105961D01*
X133421303Y-139105961D02*
X133383207Y-139182152D01*
X133383207Y-139182152D02*
X133345112Y-139220247D01*
X133345112Y-139220247D02*
X133268922Y-139258342D01*
X133268922Y-139258342D02*
X132964160Y-139258342D01*
X133764160Y-139220247D02*
X134030826Y-139220247D01*
X134145112Y-139639295D02*
X133764160Y-139639295D01*
X133764160Y-139639295D02*
X133764160Y-138839295D01*
X133764160Y-138839295D02*
X134145112Y-138839295D01*
X134754636Y-139220247D02*
X134487970Y-139220247D01*
X134487970Y-139639295D02*
X134487970Y-138839295D01*
X134487970Y-138839295D02*
X134868922Y-138839295D01*
X112460827Y-111814295D02*
X112194160Y-111433342D01*
X112003684Y-111814295D02*
X112003684Y-111014295D01*
X112003684Y-111014295D02*
X112308446Y-111014295D01*
X112308446Y-111014295D02*
X112384636Y-111052390D01*
X112384636Y-111052390D02*
X112422731Y-111090485D01*
X112422731Y-111090485D02*
X112460827Y-111166676D01*
X112460827Y-111166676D02*
X112460827Y-111280961D01*
X112460827Y-111280961D02*
X112422731Y-111357152D01*
X112422731Y-111357152D02*
X112384636Y-111395247D01*
X112384636Y-111395247D02*
X112308446Y-111433342D01*
X112308446Y-111433342D02*
X112003684Y-111433342D01*
X112727493Y-111014295D02*
X113260827Y-111814295D01*
X113260827Y-111014295D02*
X112727493Y-111814295D01*
X113717970Y-111014295D02*
X113794160Y-111014295D01*
X113794160Y-111014295D02*
X113870351Y-111052390D01*
X113870351Y-111052390D02*
X113908446Y-111090485D01*
X113908446Y-111090485D02*
X113946541Y-111166676D01*
X113946541Y-111166676D02*
X113984636Y-111319057D01*
X113984636Y-111319057D02*
X113984636Y-111509533D01*
X113984636Y-111509533D02*
X113946541Y-111661914D01*
X113946541Y-111661914D02*
X113908446Y-111738104D01*
X113908446Y-111738104D02*
X113870351Y-111776200D01*
X113870351Y-111776200D02*
X113794160Y-111814295D01*
X113794160Y-111814295D02*
X113717970Y-111814295D01*
X113717970Y-111814295D02*
X113641779Y-111776200D01*
X113641779Y-111776200D02*
X113603684Y-111738104D01*
X113603684Y-111738104D02*
X113565589Y-111661914D01*
X113565589Y-111661914D02*
X113527493Y-111509533D01*
X113527493Y-111509533D02*
X113527493Y-111319057D01*
X113527493Y-111319057D02*
X113565589Y-111166676D01*
X113565589Y-111166676D02*
X113603684Y-111090485D01*
X113603684Y-111090485D02*
X113641779Y-111052390D01*
X113641779Y-111052390D02*
X113717970Y-111014295D01*
X117145714Y-99572295D02*
X117145714Y-98772295D01*
X117145714Y-98772295D02*
X117336190Y-98772295D01*
X117336190Y-98772295D02*
X117450476Y-98810390D01*
X117450476Y-98810390D02*
X117526666Y-98886580D01*
X117526666Y-98886580D02*
X117564761Y-98962771D01*
X117564761Y-98962771D02*
X117602857Y-99115152D01*
X117602857Y-99115152D02*
X117602857Y-99229438D01*
X117602857Y-99229438D02*
X117564761Y-99381819D01*
X117564761Y-99381819D02*
X117526666Y-99458009D01*
X117526666Y-99458009D02*
X117450476Y-99534200D01*
X117450476Y-99534200D02*
X117336190Y-99572295D01*
X117336190Y-99572295D02*
X117145714Y-99572295D01*
X117869523Y-98772295D02*
X118402857Y-98772295D01*
X118402857Y-98772295D02*
X117869523Y-99572295D01*
X117869523Y-99572295D02*
X118402857Y-99572295D01*
X118669523Y-99343723D02*
X119050476Y-99343723D01*
X118593333Y-99572295D02*
X118860000Y-98772295D01*
X118860000Y-98772295D02*
X119126666Y-99572295D01*
X119545714Y-98772295D02*
X119621904Y-98772295D01*
X119621904Y-98772295D02*
X119698095Y-98810390D01*
X119698095Y-98810390D02*
X119736190Y-98848485D01*
X119736190Y-98848485D02*
X119774285Y-98924676D01*
X119774285Y-98924676D02*
X119812380Y-99077057D01*
X119812380Y-99077057D02*
X119812380Y-99267533D01*
X119812380Y-99267533D02*
X119774285Y-99419914D01*
X119774285Y-99419914D02*
X119736190Y-99496104D01*
X119736190Y-99496104D02*
X119698095Y-99534200D01*
X119698095Y-99534200D02*
X119621904Y-99572295D01*
X119621904Y-99572295D02*
X119545714Y-99572295D01*
X119545714Y-99572295D02*
X119469523Y-99534200D01*
X119469523Y-99534200D02*
X119431428Y-99496104D01*
X119431428Y-99496104D02*
X119393333Y-99419914D01*
X119393333Y-99419914D02*
X119355237Y-99267533D01*
X119355237Y-99267533D02*
X119355237Y-99077057D01*
X119355237Y-99077057D02*
X119393333Y-98924676D01*
X119393333Y-98924676D02*
X119431428Y-98848485D01*
X119431428Y-98848485D02*
X119469523Y-98810390D01*
X119469523Y-98810390D02*
X119545714Y-98772295D01*
X120290476Y-86812295D02*
X120290476Y-86012295D01*
X120747619Y-86812295D02*
X120404761Y-86355152D01*
X120747619Y-86012295D02*
X120290476Y-86469438D01*
X103049819Y-129074047D02*
X102573628Y-129407380D01*
X103049819Y-129645475D02*
X102049819Y-129645475D01*
X102049819Y-129645475D02*
X102049819Y-129264523D01*
X102049819Y-129264523D02*
X102097438Y-129169285D01*
X102097438Y-129169285D02*
X102145057Y-129121666D01*
X102145057Y-129121666D02*
X102240295Y-129074047D01*
X102240295Y-129074047D02*
X102383152Y-129074047D01*
X102383152Y-129074047D02*
X102478390Y-129121666D01*
X102478390Y-129121666D02*
X102526009Y-129169285D01*
X102526009Y-129169285D02*
X102573628Y-129264523D01*
X102573628Y-129264523D02*
X102573628Y-129645475D01*
X102526009Y-128645475D02*
X102526009Y-128312142D01*
X103049819Y-128169285D02*
X103049819Y-128645475D01*
X103049819Y-128645475D02*
X102049819Y-128645475D01*
X102049819Y-128645475D02*
X102049819Y-128169285D01*
X103002200Y-127788332D02*
X103049819Y-127645475D01*
X103049819Y-127645475D02*
X103049819Y-127407380D01*
X103049819Y-127407380D02*
X103002200Y-127312142D01*
X103002200Y-127312142D02*
X102954580Y-127264523D01*
X102954580Y-127264523D02*
X102859342Y-127216904D01*
X102859342Y-127216904D02*
X102764104Y-127216904D01*
X102764104Y-127216904D02*
X102668866Y-127264523D01*
X102668866Y-127264523D02*
X102621247Y-127312142D01*
X102621247Y-127312142D02*
X102573628Y-127407380D01*
X102573628Y-127407380D02*
X102526009Y-127597856D01*
X102526009Y-127597856D02*
X102478390Y-127693094D01*
X102478390Y-127693094D02*
X102430771Y-127740713D01*
X102430771Y-127740713D02*
X102335533Y-127788332D01*
X102335533Y-127788332D02*
X102240295Y-127788332D01*
X102240295Y-127788332D02*
X102145057Y-127740713D01*
X102145057Y-127740713D02*
X102097438Y-127693094D01*
X102097438Y-127693094D02*
X102049819Y-127597856D01*
X102049819Y-127597856D02*
X102049819Y-127359761D01*
X102049819Y-127359761D02*
X102097438Y-127216904D01*
X108094819Y-111105476D02*
X107618628Y-111438809D01*
X108094819Y-111676904D02*
X107094819Y-111676904D01*
X107094819Y-111676904D02*
X107094819Y-111295952D01*
X107094819Y-111295952D02*
X107142438Y-111200714D01*
X107142438Y-111200714D02*
X107190057Y-111153095D01*
X107190057Y-111153095D02*
X107285295Y-111105476D01*
X107285295Y-111105476D02*
X107428152Y-111105476D01*
X107428152Y-111105476D02*
X107523390Y-111153095D01*
X107523390Y-111153095D02*
X107571009Y-111200714D01*
X107571009Y-111200714D02*
X107618628Y-111295952D01*
X107618628Y-111295952D02*
X107618628Y-111676904D01*
X107999580Y-118770476D02*
X108047200Y-118818095D01*
X108047200Y-118818095D02*
X108094819Y-118960952D01*
X108094819Y-118960952D02*
X108094819Y-119056190D01*
X108094819Y-119056190D02*
X108047200Y-119199047D01*
X108047200Y-119199047D02*
X107951961Y-119294285D01*
X107951961Y-119294285D02*
X107856723Y-119341904D01*
X107856723Y-119341904D02*
X107666247Y-119389523D01*
X107666247Y-119389523D02*
X107523390Y-119389523D01*
X107523390Y-119389523D02*
X107332914Y-119341904D01*
X107332914Y-119341904D02*
X107237676Y-119294285D01*
X107237676Y-119294285D02*
X107142438Y-119199047D01*
X107142438Y-119199047D02*
X107094819Y-119056190D01*
X107094819Y-119056190D02*
X107094819Y-118960952D01*
X107094819Y-118960952D02*
X107142438Y-118818095D01*
X107142438Y-118818095D02*
X107190057Y-118770476D01*
X103565714Y-99602295D02*
X103565714Y-98802295D01*
X103565714Y-98802295D02*
X103756190Y-98802295D01*
X103756190Y-98802295D02*
X103870476Y-98840390D01*
X103870476Y-98840390D02*
X103946666Y-98916580D01*
X103946666Y-98916580D02*
X103984761Y-98992771D01*
X103984761Y-98992771D02*
X104022857Y-99145152D01*
X104022857Y-99145152D02*
X104022857Y-99259438D01*
X104022857Y-99259438D02*
X103984761Y-99411819D01*
X103984761Y-99411819D02*
X103946666Y-99488009D01*
X103946666Y-99488009D02*
X103870476Y-99564200D01*
X103870476Y-99564200D02*
X103756190Y-99602295D01*
X103756190Y-99602295D02*
X103565714Y-99602295D01*
X104289523Y-98802295D02*
X104822857Y-98802295D01*
X104822857Y-98802295D02*
X104289523Y-99602295D01*
X104289523Y-99602295D02*
X104822857Y-99602295D01*
X105089523Y-99373723D02*
X105470476Y-99373723D01*
X105013333Y-99602295D02*
X105280000Y-98802295D01*
X105280000Y-98802295D02*
X105546666Y-99602295D01*
X105737142Y-98802295D02*
X106232380Y-98802295D01*
X106232380Y-98802295D02*
X105965714Y-99107057D01*
X105965714Y-99107057D02*
X106079999Y-99107057D01*
X106079999Y-99107057D02*
X106156190Y-99145152D01*
X106156190Y-99145152D02*
X106194285Y-99183247D01*
X106194285Y-99183247D02*
X106232380Y-99259438D01*
X106232380Y-99259438D02*
X106232380Y-99449914D01*
X106232380Y-99449914D02*
X106194285Y-99526104D01*
X106194285Y-99526104D02*
X106156190Y-99564200D01*
X106156190Y-99564200D02*
X106079999Y-99602295D01*
X106079999Y-99602295D02*
X105851428Y-99602295D01*
X105851428Y-99602295D02*
X105775237Y-99564200D01*
X105775237Y-99564200D02*
X105737142Y-99526104D01*
X106690476Y-86842295D02*
X106690476Y-86042295D01*
X107147619Y-86842295D02*
X106804761Y-86385152D01*
X107147619Y-86042295D02*
X106690476Y-86499438D01*
X124204762Y-60059104D02*
X124680952Y-60059104D01*
X124109524Y-60344819D02*
X124442857Y-59344819D01*
X124442857Y-59344819D02*
X124776190Y-60344819D01*
X125871429Y-59963866D02*
X126633334Y-59963866D01*
X127871429Y-60344819D02*
X127871429Y-59344819D01*
X127871429Y-59344819D02*
X128252381Y-59344819D01*
X128252381Y-59344819D02*
X128347619Y-59392438D01*
X128347619Y-59392438D02*
X128395238Y-59440057D01*
X128395238Y-59440057D02*
X128442857Y-59535295D01*
X128442857Y-59535295D02*
X128442857Y-59678152D01*
X128442857Y-59678152D02*
X128395238Y-59773390D01*
X128395238Y-59773390D02*
X128347619Y-59821009D01*
X128347619Y-59821009D02*
X128252381Y-59868628D01*
X128252381Y-59868628D02*
X127871429Y-59868628D01*
X129442857Y-60344819D02*
X129109524Y-59868628D01*
X128871429Y-60344819D02*
X128871429Y-59344819D01*
X128871429Y-59344819D02*
X129252381Y-59344819D01*
X129252381Y-59344819D02*
X129347619Y-59392438D01*
X129347619Y-59392438D02*
X129395238Y-59440057D01*
X129395238Y-59440057D02*
X129442857Y-59535295D01*
X129442857Y-59535295D02*
X129442857Y-59678152D01*
X129442857Y-59678152D02*
X129395238Y-59773390D01*
X129395238Y-59773390D02*
X129347619Y-59821009D01*
X129347619Y-59821009D02*
X129252381Y-59868628D01*
X129252381Y-59868628D02*
X128871429Y-59868628D01*
X130061905Y-59344819D02*
X130252381Y-59344819D01*
X130252381Y-59344819D02*
X130347619Y-59392438D01*
X130347619Y-59392438D02*
X130442857Y-59487676D01*
X130442857Y-59487676D02*
X130490476Y-59678152D01*
X130490476Y-59678152D02*
X130490476Y-60011485D01*
X130490476Y-60011485D02*
X130442857Y-60201961D01*
X130442857Y-60201961D02*
X130347619Y-60297200D01*
X130347619Y-60297200D02*
X130252381Y-60344819D01*
X130252381Y-60344819D02*
X130061905Y-60344819D01*
X130061905Y-60344819D02*
X129966667Y-60297200D01*
X129966667Y-60297200D02*
X129871429Y-60201961D01*
X129871429Y-60201961D02*
X129823810Y-60011485D01*
X129823810Y-60011485D02*
X129823810Y-59678152D01*
X129823810Y-59678152D02*
X129871429Y-59487676D01*
X129871429Y-59487676D02*
X129966667Y-59392438D01*
X129966667Y-59392438D02*
X130061905Y-59344819D01*
X131252381Y-59821009D02*
X131395238Y-59868628D01*
X131395238Y-59868628D02*
X131442857Y-59916247D01*
X131442857Y-59916247D02*
X131490476Y-60011485D01*
X131490476Y-60011485D02*
X131490476Y-60154342D01*
X131490476Y-60154342D02*
X131442857Y-60249580D01*
X131442857Y-60249580D02*
X131395238Y-60297200D01*
X131395238Y-60297200D02*
X131300000Y-60344819D01*
X131300000Y-60344819D02*
X130919048Y-60344819D01*
X130919048Y-60344819D02*
X130919048Y-59344819D01*
X130919048Y-59344819D02*
X131252381Y-59344819D01*
X131252381Y-59344819D02*
X131347619Y-59392438D01*
X131347619Y-59392438D02*
X131395238Y-59440057D01*
X131395238Y-59440057D02*
X131442857Y-59535295D01*
X131442857Y-59535295D02*
X131442857Y-59630533D01*
X131442857Y-59630533D02*
X131395238Y-59725771D01*
X131395238Y-59725771D02*
X131347619Y-59773390D01*
X131347619Y-59773390D02*
X131252381Y-59821009D01*
X131252381Y-59821009D02*
X130919048Y-59821009D01*
X131919048Y-59821009D02*
X132252381Y-59821009D01*
X132395238Y-60344819D02*
X131919048Y-60344819D01*
X131919048Y-60344819D02*
X131919048Y-59344819D01*
X131919048Y-59344819D02*
X132395238Y-59344819D01*
X123779104Y-133925238D02*
X123779104Y-133449048D01*
X124064819Y-134020476D02*
X123064819Y-133687143D01*
X123064819Y-133687143D02*
X124064819Y-133353810D01*
X124064819Y-133020476D02*
X123398152Y-133020476D01*
X123588628Y-133020476D02*
X123493390Y-132972857D01*
X123493390Y-132972857D02*
X123445771Y-132925238D01*
X123445771Y-132925238D02*
X123398152Y-132830000D01*
X123398152Y-132830000D02*
X123398152Y-132734762D01*
X124064819Y-131972857D02*
X123064819Y-131972857D01*
X124017200Y-131972857D02*
X124064819Y-132068095D01*
X124064819Y-132068095D02*
X124064819Y-132258571D01*
X124064819Y-132258571D02*
X124017200Y-132353809D01*
X124017200Y-132353809D02*
X123969580Y-132401428D01*
X123969580Y-132401428D02*
X123874342Y-132449047D01*
X123874342Y-132449047D02*
X123588628Y-132449047D01*
X123588628Y-132449047D02*
X123493390Y-132401428D01*
X123493390Y-132401428D02*
X123445771Y-132353809D01*
X123445771Y-132353809D02*
X123398152Y-132258571D01*
X123398152Y-132258571D02*
X123398152Y-132068095D01*
X123398152Y-132068095D02*
X123445771Y-131972857D01*
X123398152Y-131068095D02*
X124064819Y-131068095D01*
X123398152Y-131496666D02*
X123921961Y-131496666D01*
X123921961Y-131496666D02*
X124017200Y-131449047D01*
X124017200Y-131449047D02*
X124064819Y-131353809D01*
X124064819Y-131353809D02*
X124064819Y-131210952D01*
X124064819Y-131210952D02*
X124017200Y-131115714D01*
X124017200Y-131115714D02*
X123969580Y-131068095D01*
X124064819Y-130591904D02*
X123398152Y-130591904D01*
X123064819Y-130591904D02*
X123112438Y-130639523D01*
X123112438Y-130639523D02*
X123160057Y-130591904D01*
X123160057Y-130591904D02*
X123112438Y-130544285D01*
X123112438Y-130544285D02*
X123064819Y-130591904D01*
X123064819Y-130591904D02*
X123160057Y-130591904D01*
X123398152Y-130115714D02*
X124064819Y-130115714D01*
X123493390Y-130115714D02*
X123445771Y-130068095D01*
X123445771Y-130068095D02*
X123398152Y-129972857D01*
X123398152Y-129972857D02*
X123398152Y-129830000D01*
X123398152Y-129830000D02*
X123445771Y-129734762D01*
X123445771Y-129734762D02*
X123541009Y-129687143D01*
X123541009Y-129687143D02*
X124064819Y-129687143D01*
X124064819Y-129068095D02*
X124017200Y-129163333D01*
X124017200Y-129163333D02*
X123969580Y-129210952D01*
X123969580Y-129210952D02*
X123874342Y-129258571D01*
X123874342Y-129258571D02*
X123588628Y-129258571D01*
X123588628Y-129258571D02*
X123493390Y-129210952D01*
X123493390Y-129210952D02*
X123445771Y-129163333D01*
X123445771Y-129163333D02*
X123398152Y-129068095D01*
X123398152Y-129068095D02*
X123398152Y-128925238D01*
X123398152Y-128925238D02*
X123445771Y-128830000D01*
X123445771Y-128830000D02*
X123493390Y-128782381D01*
X123493390Y-128782381D02*
X123588628Y-128734762D01*
X123588628Y-128734762D02*
X123874342Y-128734762D01*
X123874342Y-128734762D02*
X123969580Y-128782381D01*
X123969580Y-128782381D02*
X124017200Y-128830000D01*
X124017200Y-128830000D02*
X124064819Y-128925238D01*
X124064819Y-128925238D02*
X124064819Y-129068095D01*
X124064819Y-127544285D02*
X123064819Y-127544285D01*
X123064819Y-127544285D02*
X124064819Y-126972857D01*
X124064819Y-126972857D02*
X123064819Y-126972857D01*
X124064819Y-126068095D02*
X123541009Y-126068095D01*
X123541009Y-126068095D02*
X123445771Y-126115714D01*
X123445771Y-126115714D02*
X123398152Y-126210952D01*
X123398152Y-126210952D02*
X123398152Y-126401428D01*
X123398152Y-126401428D02*
X123445771Y-126496666D01*
X124017200Y-126068095D02*
X124064819Y-126163333D01*
X124064819Y-126163333D02*
X124064819Y-126401428D01*
X124064819Y-126401428D02*
X124017200Y-126496666D01*
X124017200Y-126496666D02*
X123921961Y-126544285D01*
X123921961Y-126544285D02*
X123826723Y-126544285D01*
X123826723Y-126544285D02*
X123731485Y-126496666D01*
X123731485Y-126496666D02*
X123683866Y-126401428D01*
X123683866Y-126401428D02*
X123683866Y-126163333D01*
X123683866Y-126163333D02*
X123636247Y-126068095D01*
X123398152Y-125591904D02*
X124064819Y-125591904D01*
X123493390Y-125591904D02*
X123445771Y-125544285D01*
X123445771Y-125544285D02*
X123398152Y-125449047D01*
X123398152Y-125449047D02*
X123398152Y-125306190D01*
X123398152Y-125306190D02*
X123445771Y-125210952D01*
X123445771Y-125210952D02*
X123541009Y-125163333D01*
X123541009Y-125163333D02*
X124064819Y-125163333D01*
X124064819Y-124544285D02*
X124017200Y-124639523D01*
X124017200Y-124639523D02*
X123969580Y-124687142D01*
X123969580Y-124687142D02*
X123874342Y-124734761D01*
X123874342Y-124734761D02*
X123588628Y-124734761D01*
X123588628Y-124734761D02*
X123493390Y-124687142D01*
X123493390Y-124687142D02*
X123445771Y-124639523D01*
X123445771Y-124639523D02*
X123398152Y-124544285D01*
X123398152Y-124544285D02*
X123398152Y-124401428D01*
X123398152Y-124401428D02*
X123445771Y-124306190D01*
X123445771Y-124306190D02*
X123493390Y-124258571D01*
X123493390Y-124258571D02*
X123588628Y-124210952D01*
X123588628Y-124210952D02*
X123874342Y-124210952D01*
X123874342Y-124210952D02*
X123969580Y-124258571D01*
X123969580Y-124258571D02*
X124017200Y-124306190D01*
X124017200Y-124306190D02*
X124064819Y-124401428D01*
X124064819Y-124401428D02*
X124064819Y-124544285D01*
X123398152Y-123115713D02*
X124064819Y-122877618D01*
X124064819Y-122877618D02*
X123398152Y-122639523D01*
X123064819Y-122353808D02*
X123064819Y-121734761D01*
X123064819Y-121734761D02*
X123445771Y-122068094D01*
X123445771Y-122068094D02*
X123445771Y-121925237D01*
X123445771Y-121925237D02*
X123493390Y-121829999D01*
X123493390Y-121829999D02*
X123541009Y-121782380D01*
X123541009Y-121782380D02*
X123636247Y-121734761D01*
X123636247Y-121734761D02*
X123874342Y-121734761D01*
X123874342Y-121734761D02*
X123969580Y-121782380D01*
X123969580Y-121782380D02*
X124017200Y-121829999D01*
X124017200Y-121829999D02*
X124064819Y-121925237D01*
X124064819Y-121925237D02*
X124064819Y-122210951D01*
X124064819Y-122210951D02*
X124017200Y-122306189D01*
X124017200Y-122306189D02*
X123969580Y-122353808D01*
X122358095Y-143794819D02*
X122358095Y-144604342D01*
X122358095Y-144604342D02*
X122405714Y-144699580D01*
X122405714Y-144699580D02*
X122453333Y-144747200D01*
X122453333Y-144747200D02*
X122548571Y-144794819D01*
X122548571Y-144794819D02*
X122739047Y-144794819D01*
X122739047Y-144794819D02*
X122834285Y-144747200D01*
X122834285Y-144747200D02*
X122881904Y-144699580D01*
X122881904Y-144699580D02*
X122929523Y-144604342D01*
X122929523Y-144604342D02*
X122929523Y-143794819D01*
X123358095Y-144747200D02*
X123500952Y-144794819D01*
X123500952Y-144794819D02*
X123739047Y-144794819D01*
X123739047Y-144794819D02*
X123834285Y-144747200D01*
X123834285Y-144747200D02*
X123881904Y-144699580D01*
X123881904Y-144699580D02*
X123929523Y-144604342D01*
X123929523Y-144604342D02*
X123929523Y-144509104D01*
X123929523Y-144509104D02*
X123881904Y-144413866D01*
X123881904Y-144413866D02*
X123834285Y-144366247D01*
X123834285Y-144366247D02*
X123739047Y-144318628D01*
X123739047Y-144318628D02*
X123548571Y-144271009D01*
X123548571Y-144271009D02*
X123453333Y-144223390D01*
X123453333Y-144223390D02*
X123405714Y-144175771D01*
X123405714Y-144175771D02*
X123358095Y-144080533D01*
X123358095Y-144080533D02*
X123358095Y-143985295D01*
X123358095Y-143985295D02*
X123405714Y-143890057D01*
X123405714Y-143890057D02*
X123453333Y-143842438D01*
X123453333Y-143842438D02*
X123548571Y-143794819D01*
X123548571Y-143794819D02*
X123786666Y-143794819D01*
X123786666Y-143794819D02*
X123929523Y-143842438D01*
X124691428Y-144271009D02*
X124834285Y-144318628D01*
X124834285Y-144318628D02*
X124881904Y-144366247D01*
X124881904Y-144366247D02*
X124929523Y-144461485D01*
X124929523Y-144461485D02*
X124929523Y-144604342D01*
X124929523Y-144604342D02*
X124881904Y-144699580D01*
X124881904Y-144699580D02*
X124834285Y-144747200D01*
X124834285Y-144747200D02*
X124739047Y-144794819D01*
X124739047Y-144794819D02*
X124358095Y-144794819D01*
X124358095Y-144794819D02*
X124358095Y-143794819D01*
X124358095Y-143794819D02*
X124691428Y-143794819D01*
X124691428Y-143794819D02*
X124786666Y-143842438D01*
X124786666Y-143842438D02*
X124834285Y-143890057D01*
X124834285Y-143890057D02*
X124881904Y-143985295D01*
X124881904Y-143985295D02*
X124881904Y-144080533D01*
X124881904Y-144080533D02*
X124834285Y-144175771D01*
X124834285Y-144175771D02*
X124786666Y-144223390D01*
X124786666Y-144223390D02*
X124691428Y-144271009D01*
X124691428Y-144271009D02*
X124358095Y-144271009D01*
X103002200Y-142655475D02*
X103049819Y-142512618D01*
X103049819Y-142512618D02*
X103049819Y-142274523D01*
X103049819Y-142274523D02*
X103002200Y-142179285D01*
X103002200Y-142179285D02*
X102954580Y-142131666D01*
X102954580Y-142131666D02*
X102859342Y-142084047D01*
X102859342Y-142084047D02*
X102764104Y-142084047D01*
X102764104Y-142084047D02*
X102668866Y-142131666D01*
X102668866Y-142131666D02*
X102621247Y-142179285D01*
X102621247Y-142179285D02*
X102573628Y-142274523D01*
X102573628Y-142274523D02*
X102526009Y-142464999D01*
X102526009Y-142464999D02*
X102478390Y-142560237D01*
X102478390Y-142560237D02*
X102430771Y-142607856D01*
X102430771Y-142607856D02*
X102335533Y-142655475D01*
X102335533Y-142655475D02*
X102240295Y-142655475D01*
X102240295Y-142655475D02*
X102145057Y-142607856D01*
X102145057Y-142607856D02*
X102097438Y-142560237D01*
X102097438Y-142560237D02*
X102049819Y-142464999D01*
X102049819Y-142464999D02*
X102049819Y-142226904D01*
X102049819Y-142226904D02*
X102097438Y-142084047D01*
X102954580Y-141084047D02*
X103002200Y-141131666D01*
X103002200Y-141131666D02*
X103049819Y-141274523D01*
X103049819Y-141274523D02*
X103049819Y-141369761D01*
X103049819Y-141369761D02*
X103002200Y-141512618D01*
X103002200Y-141512618D02*
X102906961Y-141607856D01*
X102906961Y-141607856D02*
X102811723Y-141655475D01*
X102811723Y-141655475D02*
X102621247Y-141703094D01*
X102621247Y-141703094D02*
X102478390Y-141703094D01*
X102478390Y-141703094D02*
X102287914Y-141655475D01*
X102287914Y-141655475D02*
X102192676Y-141607856D01*
X102192676Y-141607856D02*
X102097438Y-141512618D01*
X102097438Y-141512618D02*
X102049819Y-141369761D01*
X102049819Y-141369761D02*
X102049819Y-141274523D01*
X102049819Y-141274523D02*
X102097438Y-141131666D01*
X102097438Y-141131666D02*
X102145057Y-141084047D01*
X103049819Y-140179285D02*
X103049819Y-140655475D01*
X103049819Y-140655475D02*
X102049819Y-140655475D01*
X108094819Y-103440476D02*
X108094819Y-103916666D01*
X108094819Y-103916666D02*
X107094819Y-103916666D01*
X103049819Y-132481904D02*
X102049819Y-132481904D01*
X102049819Y-132481904D02*
X102049819Y-132243809D01*
X102049819Y-132243809D02*
X102097438Y-132100952D01*
X102097438Y-132100952D02*
X102192676Y-132005714D01*
X102192676Y-132005714D02*
X102287914Y-131958095D01*
X102287914Y-131958095D02*
X102478390Y-131910476D01*
X102478390Y-131910476D02*
X102621247Y-131910476D01*
X102621247Y-131910476D02*
X102811723Y-131958095D01*
X102811723Y-131958095D02*
X102906961Y-132005714D01*
X102906961Y-132005714D02*
X103002200Y-132100952D01*
X103002200Y-132100952D02*
X103049819Y-132243809D01*
X103049819Y-132243809D02*
X103049819Y-132481904D01*
X102954580Y-130910476D02*
X103002200Y-130958095D01*
X103002200Y-130958095D02*
X103049819Y-131100952D01*
X103049819Y-131100952D02*
X103049819Y-131196190D01*
X103049819Y-131196190D02*
X103002200Y-131339047D01*
X103002200Y-131339047D02*
X102906961Y-131434285D01*
X102906961Y-131434285D02*
X102811723Y-131481904D01*
X102811723Y-131481904D02*
X102621247Y-131529523D01*
X102621247Y-131529523D02*
X102478390Y-131529523D01*
X102478390Y-131529523D02*
X102287914Y-131481904D01*
X102287914Y-131481904D02*
X102192676Y-131434285D01*
X102192676Y-131434285D02*
X102097438Y-131339047D01*
X102097438Y-131339047D02*
X102049819Y-131196190D01*
X102049819Y-131196190D02*
X102049819Y-131100952D01*
X102049819Y-131100952D02*
X102097438Y-130958095D01*
X102097438Y-130958095D02*
X102145057Y-130910476D01*
X104504285Y-59821009D02*
X104647142Y-59868628D01*
X104647142Y-59868628D02*
X104694761Y-59916247D01*
X104694761Y-59916247D02*
X104742380Y-60011485D01*
X104742380Y-60011485D02*
X104742380Y-60154342D01*
X104742380Y-60154342D02*
X104694761Y-60249580D01*
X104694761Y-60249580D02*
X104647142Y-60297200D01*
X104647142Y-60297200D02*
X104551904Y-60344819D01*
X104551904Y-60344819D02*
X104170952Y-60344819D01*
X104170952Y-60344819D02*
X104170952Y-59344819D01*
X104170952Y-59344819D02*
X104504285Y-59344819D01*
X104504285Y-59344819D02*
X104599523Y-59392438D01*
X104599523Y-59392438D02*
X104647142Y-59440057D01*
X104647142Y-59440057D02*
X104694761Y-59535295D01*
X104694761Y-59535295D02*
X104694761Y-59630533D01*
X104694761Y-59630533D02*
X104647142Y-59725771D01*
X104647142Y-59725771D02*
X104599523Y-59773390D01*
X104599523Y-59773390D02*
X104504285Y-59821009D01*
X104504285Y-59821009D02*
X104170952Y-59821009D01*
X105932857Y-59963866D02*
X106694762Y-59963866D01*
X107932857Y-60344819D02*
X107932857Y-59344819D01*
X107932857Y-59344819D02*
X108313809Y-59344819D01*
X108313809Y-59344819D02*
X108409047Y-59392438D01*
X108409047Y-59392438D02*
X108456666Y-59440057D01*
X108456666Y-59440057D02*
X108504285Y-59535295D01*
X108504285Y-59535295D02*
X108504285Y-59678152D01*
X108504285Y-59678152D02*
X108456666Y-59773390D01*
X108456666Y-59773390D02*
X108409047Y-59821009D01*
X108409047Y-59821009D02*
X108313809Y-59868628D01*
X108313809Y-59868628D02*
X107932857Y-59868628D01*
X109504285Y-60344819D02*
X109170952Y-59868628D01*
X108932857Y-60344819D02*
X108932857Y-59344819D01*
X108932857Y-59344819D02*
X109313809Y-59344819D01*
X109313809Y-59344819D02*
X109409047Y-59392438D01*
X109409047Y-59392438D02*
X109456666Y-59440057D01*
X109456666Y-59440057D02*
X109504285Y-59535295D01*
X109504285Y-59535295D02*
X109504285Y-59678152D01*
X109504285Y-59678152D02*
X109456666Y-59773390D01*
X109456666Y-59773390D02*
X109409047Y-59821009D01*
X109409047Y-59821009D02*
X109313809Y-59868628D01*
X109313809Y-59868628D02*
X108932857Y-59868628D01*
X110123333Y-59344819D02*
X110313809Y-59344819D01*
X110313809Y-59344819D02*
X110409047Y-59392438D01*
X110409047Y-59392438D02*
X110504285Y-59487676D01*
X110504285Y-59487676D02*
X110551904Y-59678152D01*
X110551904Y-59678152D02*
X110551904Y-60011485D01*
X110551904Y-60011485D02*
X110504285Y-60201961D01*
X110504285Y-60201961D02*
X110409047Y-60297200D01*
X110409047Y-60297200D02*
X110313809Y-60344819D01*
X110313809Y-60344819D02*
X110123333Y-60344819D01*
X110123333Y-60344819D02*
X110028095Y-60297200D01*
X110028095Y-60297200D02*
X109932857Y-60201961D01*
X109932857Y-60201961D02*
X109885238Y-60011485D01*
X109885238Y-60011485D02*
X109885238Y-59678152D01*
X109885238Y-59678152D02*
X109932857Y-59487676D01*
X109932857Y-59487676D02*
X110028095Y-59392438D01*
X110028095Y-59392438D02*
X110123333Y-59344819D01*
X111313809Y-59821009D02*
X111456666Y-59868628D01*
X111456666Y-59868628D02*
X111504285Y-59916247D01*
X111504285Y-59916247D02*
X111551904Y-60011485D01*
X111551904Y-60011485D02*
X111551904Y-60154342D01*
X111551904Y-60154342D02*
X111504285Y-60249580D01*
X111504285Y-60249580D02*
X111456666Y-60297200D01*
X111456666Y-60297200D02*
X111361428Y-60344819D01*
X111361428Y-60344819D02*
X110980476Y-60344819D01*
X110980476Y-60344819D02*
X110980476Y-59344819D01*
X110980476Y-59344819D02*
X111313809Y-59344819D01*
X111313809Y-59344819D02*
X111409047Y-59392438D01*
X111409047Y-59392438D02*
X111456666Y-59440057D01*
X111456666Y-59440057D02*
X111504285Y-59535295D01*
X111504285Y-59535295D02*
X111504285Y-59630533D01*
X111504285Y-59630533D02*
X111456666Y-59725771D01*
X111456666Y-59725771D02*
X111409047Y-59773390D01*
X111409047Y-59773390D02*
X111313809Y-59821009D01*
X111313809Y-59821009D02*
X110980476Y-59821009D01*
X111980476Y-59821009D02*
X112313809Y-59821009D01*
X112456666Y-60344819D02*
X111980476Y-60344819D01*
X111980476Y-60344819D02*
X111980476Y-59344819D01*
X111980476Y-59344819D02*
X112456666Y-59344819D01*
X103002200Y-139464285D02*
X103049819Y-139321428D01*
X103049819Y-139321428D02*
X103049819Y-139083333D01*
X103049819Y-139083333D02*
X103002200Y-138988095D01*
X103002200Y-138988095D02*
X102954580Y-138940476D01*
X102954580Y-138940476D02*
X102859342Y-138892857D01*
X102859342Y-138892857D02*
X102764104Y-138892857D01*
X102764104Y-138892857D02*
X102668866Y-138940476D01*
X102668866Y-138940476D02*
X102621247Y-138988095D01*
X102621247Y-138988095D02*
X102573628Y-139083333D01*
X102573628Y-139083333D02*
X102526009Y-139273809D01*
X102526009Y-139273809D02*
X102478390Y-139369047D01*
X102478390Y-139369047D02*
X102430771Y-139416666D01*
X102430771Y-139416666D02*
X102335533Y-139464285D01*
X102335533Y-139464285D02*
X102240295Y-139464285D01*
X102240295Y-139464285D02*
X102145057Y-139416666D01*
X102145057Y-139416666D02*
X102097438Y-139369047D01*
X102097438Y-139369047D02*
X102049819Y-139273809D01*
X102049819Y-139273809D02*
X102049819Y-139035714D01*
X102049819Y-139035714D02*
X102097438Y-138892857D01*
X103049819Y-138464285D02*
X102049819Y-138464285D01*
X102049819Y-138464285D02*
X102049819Y-138226190D01*
X102049819Y-138226190D02*
X102097438Y-138083333D01*
X102097438Y-138083333D02*
X102192676Y-137988095D01*
X102192676Y-137988095D02*
X102287914Y-137940476D01*
X102287914Y-137940476D02*
X102478390Y-137892857D01*
X102478390Y-137892857D02*
X102621247Y-137892857D01*
X102621247Y-137892857D02*
X102811723Y-137940476D01*
X102811723Y-137940476D02*
X102906961Y-137988095D01*
X102906961Y-137988095D02*
X103002200Y-138083333D01*
X103002200Y-138083333D02*
X103049819Y-138226190D01*
X103049819Y-138226190D02*
X103049819Y-138464285D01*
X102764104Y-137511904D02*
X102764104Y-137035714D01*
X103049819Y-137607142D02*
X102049819Y-137273809D01*
X102049819Y-137273809D02*
X103049819Y-136940476D01*
X115030952Y-78094104D02*
X115507142Y-78094104D01*
X114935714Y-78379819D02*
X115269047Y-77379819D01*
X115269047Y-77379819D02*
X115602380Y-78379819D01*
X115935714Y-78379819D02*
X115935714Y-77379819D01*
X115935714Y-77379819D02*
X116173809Y-77379819D01*
X116173809Y-77379819D02*
X116316666Y-77427438D01*
X116316666Y-77427438D02*
X116411904Y-77522676D01*
X116411904Y-77522676D02*
X116459523Y-77617914D01*
X116459523Y-77617914D02*
X116507142Y-77808390D01*
X116507142Y-77808390D02*
X116507142Y-77951247D01*
X116507142Y-77951247D02*
X116459523Y-78141723D01*
X116459523Y-78141723D02*
X116411904Y-78236961D01*
X116411904Y-78236961D02*
X116316666Y-78332200D01*
X116316666Y-78332200D02*
X116173809Y-78379819D01*
X116173809Y-78379819D02*
X115935714Y-78379819D01*
X116888095Y-78332200D02*
X117030952Y-78379819D01*
X117030952Y-78379819D02*
X117269047Y-78379819D01*
X117269047Y-78379819D02*
X117364285Y-78332200D01*
X117364285Y-78332200D02*
X117411904Y-78284580D01*
X117411904Y-78284580D02*
X117459523Y-78189342D01*
X117459523Y-78189342D02*
X117459523Y-78094104D01*
X117459523Y-78094104D02*
X117411904Y-77998866D01*
X117411904Y-77998866D02*
X117364285Y-77951247D01*
X117364285Y-77951247D02*
X117269047Y-77903628D01*
X117269047Y-77903628D02*
X117078571Y-77856009D01*
X117078571Y-77856009D02*
X116983333Y-77808390D01*
X116983333Y-77808390D02*
X116935714Y-77760771D01*
X116935714Y-77760771D02*
X116888095Y-77665533D01*
X116888095Y-77665533D02*
X116888095Y-77570295D01*
X116888095Y-77570295D02*
X116935714Y-77475057D01*
X116935714Y-77475057D02*
X116983333Y-77427438D01*
X116983333Y-77427438D02*
X117078571Y-77379819D01*
X117078571Y-77379819D02*
X117316666Y-77379819D01*
X117316666Y-77379819D02*
X117459523Y-77427438D01*
X118411904Y-78379819D02*
X117840476Y-78379819D01*
X118126190Y-78379819D02*
X118126190Y-77379819D01*
X118126190Y-77379819D02*
X118030952Y-77522676D01*
X118030952Y-77522676D02*
X117935714Y-77617914D01*
X117935714Y-77617914D02*
X117840476Y-77665533D01*
X119364285Y-78379819D02*
X118792857Y-78379819D01*
X119078571Y-78379819D02*
X119078571Y-77379819D01*
X119078571Y-77379819D02*
X118983333Y-77522676D01*
X118983333Y-77522676D02*
X118888095Y-77617914D01*
X118888095Y-77617914D02*
X118792857Y-77665533D01*
X120316666Y-78379819D02*
X119745238Y-78379819D01*
X120030952Y-78379819D02*
X120030952Y-77379819D01*
X120030952Y-77379819D02*
X119935714Y-77522676D01*
X119935714Y-77522676D02*
X119840476Y-77617914D01*
X119840476Y-77617914D02*
X119745238Y-77665533D01*
X121221428Y-77379819D02*
X120745238Y-77379819D01*
X120745238Y-77379819D02*
X120697619Y-77856009D01*
X120697619Y-77856009D02*
X120745238Y-77808390D01*
X120745238Y-77808390D02*
X120840476Y-77760771D01*
X120840476Y-77760771D02*
X121078571Y-77760771D01*
X121078571Y-77760771D02*
X121173809Y-77808390D01*
X121173809Y-77808390D02*
X121221428Y-77856009D01*
X121221428Y-77856009D02*
X121269047Y-77951247D01*
X121269047Y-77951247D02*
X121269047Y-78189342D01*
X121269047Y-78189342D02*
X121221428Y-78284580D01*
X121221428Y-78284580D02*
X121173809Y-78332200D01*
X121173809Y-78332200D02*
X121078571Y-78379819D01*
X121078571Y-78379819D02*
X120840476Y-78379819D01*
X120840476Y-78379819D02*
X120745238Y-78332200D01*
X120745238Y-78332200D02*
X120697619Y-78284580D01*
X121557800Y-71173214D02*
X121510180Y-71316071D01*
X121510180Y-71316071D02*
X121510180Y-71554166D01*
X121510180Y-71554166D02*
X121557800Y-71649404D01*
X121557800Y-71649404D02*
X121605419Y-71697023D01*
X121605419Y-71697023D02*
X121700657Y-71744642D01*
X121700657Y-71744642D02*
X121795895Y-71744642D01*
X121795895Y-71744642D02*
X121891133Y-71697023D01*
X121891133Y-71697023D02*
X121938752Y-71649404D01*
X121938752Y-71649404D02*
X121986371Y-71554166D01*
X121986371Y-71554166D02*
X122033990Y-71363690D01*
X122033990Y-71363690D02*
X122081609Y-71268452D01*
X122081609Y-71268452D02*
X122129228Y-71220833D01*
X122129228Y-71220833D02*
X122224466Y-71173214D01*
X122224466Y-71173214D02*
X122319704Y-71173214D01*
X122319704Y-71173214D02*
X122414942Y-71220833D01*
X122414942Y-71220833D02*
X122462561Y-71268452D01*
X122462561Y-71268452D02*
X122510180Y-71363690D01*
X122510180Y-71363690D02*
X122510180Y-71601785D01*
X122510180Y-71601785D02*
X122462561Y-71744642D01*
X121510180Y-72173214D02*
X122510180Y-72173214D01*
X122510180Y-72173214D02*
X122510180Y-72411309D01*
X122510180Y-72411309D02*
X122462561Y-72554166D01*
X122462561Y-72554166D02*
X122367323Y-72649404D01*
X122367323Y-72649404D02*
X122272085Y-72697023D01*
X122272085Y-72697023D02*
X122081609Y-72744642D01*
X122081609Y-72744642D02*
X121938752Y-72744642D01*
X121938752Y-72744642D02*
X121748276Y-72697023D01*
X121748276Y-72697023D02*
X121653038Y-72649404D01*
X121653038Y-72649404D02*
X121557800Y-72554166D01*
X121557800Y-72554166D02*
X121510180Y-72411309D01*
X121510180Y-72411309D02*
X121510180Y-72173214D01*
X121795895Y-73125595D02*
X121795895Y-73601785D01*
X121510180Y-73030357D02*
X122510180Y-73363690D01*
X122510180Y-73363690D02*
X121510180Y-73697023D01*
X111635895Y-71406660D02*
X111635895Y-71882850D01*
X111350180Y-71311422D02*
X112350180Y-71644755D01*
X112350180Y-71644755D02*
X111350180Y-71978088D01*
X111350180Y-72835231D02*
X111350180Y-72263803D01*
X111350180Y-72549517D02*
X112350180Y-72549517D01*
X112350180Y-72549517D02*
X112207323Y-72454279D01*
X112207323Y-72454279D02*
X112112085Y-72359041D01*
X112112085Y-72359041D02*
X112064466Y-72263803D01*
X130130180Y-71311422D02*
X129130180Y-71644755D01*
X129130180Y-71644755D02*
X130130180Y-71978088D01*
X129130180Y-72311422D02*
X130130180Y-72311422D01*
X130130180Y-72311422D02*
X130130180Y-72549517D01*
X130130180Y-72549517D02*
X130082561Y-72692374D01*
X130082561Y-72692374D02*
X129987323Y-72787612D01*
X129987323Y-72787612D02*
X129892085Y-72835231D01*
X129892085Y-72835231D02*
X129701609Y-72882850D01*
X129701609Y-72882850D02*
X129558752Y-72882850D01*
X129558752Y-72882850D02*
X129368276Y-72835231D01*
X129368276Y-72835231D02*
X129273038Y-72787612D01*
X129273038Y-72787612D02*
X129177800Y-72692374D01*
X129177800Y-72692374D02*
X129130180Y-72549517D01*
X129130180Y-72549517D02*
X129130180Y-72311422D01*
X129130180Y-73311422D02*
X130130180Y-73311422D01*
X130130180Y-73311422D02*
X130130180Y-73549517D01*
X130130180Y-73549517D02*
X130082561Y-73692374D01*
X130082561Y-73692374D02*
X129987323Y-73787612D01*
X129987323Y-73787612D02*
X129892085Y-73835231D01*
X129892085Y-73835231D02*
X129701609Y-73882850D01*
X129701609Y-73882850D02*
X129558752Y-73882850D01*
X129558752Y-73882850D02*
X129368276Y-73835231D01*
X129368276Y-73835231D02*
X129273038Y-73787612D01*
X129273038Y-73787612D02*
X129177800Y-73692374D01*
X129177800Y-73692374D02*
X129130180Y-73549517D01*
X129130180Y-73549517D02*
X129130180Y-73311422D01*
X116715895Y-71406660D02*
X116715895Y-71882850D01*
X116430180Y-71311422D02*
X117430180Y-71644755D01*
X117430180Y-71644755D02*
X116430180Y-71978088D01*
X116430180Y-72787612D02*
X116430180Y-72311422D01*
X116430180Y-72311422D02*
X117430180Y-72311422D01*
X116430180Y-73692374D02*
X116906371Y-73359041D01*
X116430180Y-73120946D02*
X117430180Y-73120946D01*
X117430180Y-73120946D02*
X117430180Y-73501898D01*
X117430180Y-73501898D02*
X117382561Y-73597136D01*
X117382561Y-73597136D02*
X117334942Y-73644755D01*
X117334942Y-73644755D02*
X117239704Y-73692374D01*
X117239704Y-73692374D02*
X117096847Y-73692374D01*
X117096847Y-73692374D02*
X117001609Y-73644755D01*
X117001609Y-73644755D02*
X116953990Y-73597136D01*
X116953990Y-73597136D02*
X116906371Y-73501898D01*
X116906371Y-73501898D02*
X116906371Y-73120946D01*
X117430180Y-73978089D02*
X117430180Y-74549517D01*
X116430180Y-74263803D02*
X117430180Y-74263803D01*
X124097800Y-71406660D02*
X124050180Y-71549517D01*
X124050180Y-71549517D02*
X124050180Y-71787612D01*
X124050180Y-71787612D02*
X124097800Y-71882850D01*
X124097800Y-71882850D02*
X124145419Y-71930469D01*
X124145419Y-71930469D02*
X124240657Y-71978088D01*
X124240657Y-71978088D02*
X124335895Y-71978088D01*
X124335895Y-71978088D02*
X124431133Y-71930469D01*
X124431133Y-71930469D02*
X124478752Y-71882850D01*
X124478752Y-71882850D02*
X124526371Y-71787612D01*
X124526371Y-71787612D02*
X124573990Y-71597136D01*
X124573990Y-71597136D02*
X124621609Y-71501898D01*
X124621609Y-71501898D02*
X124669228Y-71454279D01*
X124669228Y-71454279D02*
X124764466Y-71406660D01*
X124764466Y-71406660D02*
X124859704Y-71406660D01*
X124859704Y-71406660D02*
X124954942Y-71454279D01*
X124954942Y-71454279D02*
X125002561Y-71501898D01*
X125002561Y-71501898D02*
X125050180Y-71597136D01*
X125050180Y-71597136D02*
X125050180Y-71835231D01*
X125050180Y-71835231D02*
X125002561Y-71978088D01*
X124145419Y-72978088D02*
X124097800Y-72930469D01*
X124097800Y-72930469D02*
X124050180Y-72787612D01*
X124050180Y-72787612D02*
X124050180Y-72692374D01*
X124050180Y-72692374D02*
X124097800Y-72549517D01*
X124097800Y-72549517D02*
X124193038Y-72454279D01*
X124193038Y-72454279D02*
X124288276Y-72406660D01*
X124288276Y-72406660D02*
X124478752Y-72359041D01*
X124478752Y-72359041D02*
X124621609Y-72359041D01*
X124621609Y-72359041D02*
X124812085Y-72406660D01*
X124812085Y-72406660D02*
X124907323Y-72454279D01*
X124907323Y-72454279D02*
X125002561Y-72549517D01*
X125002561Y-72549517D02*
X125050180Y-72692374D01*
X125050180Y-72692374D02*
X125050180Y-72787612D01*
X125050180Y-72787612D02*
X125002561Y-72930469D01*
X125002561Y-72930469D02*
X124954942Y-72978088D01*
X124050180Y-73882850D02*
X124050180Y-73406660D01*
X124050180Y-73406660D02*
X125050180Y-73406660D01*
X119255895Y-71406660D02*
X119255895Y-71882850D01*
X118970180Y-71311422D02*
X119970180Y-71644755D01*
X119970180Y-71644755D02*
X118970180Y-71978088D01*
X118970180Y-72311422D02*
X119970180Y-72311422D01*
X119970180Y-72311422D02*
X119970180Y-72549517D01*
X119970180Y-72549517D02*
X119922561Y-72692374D01*
X119922561Y-72692374D02*
X119827323Y-72787612D01*
X119827323Y-72787612D02*
X119732085Y-72835231D01*
X119732085Y-72835231D02*
X119541609Y-72882850D01*
X119541609Y-72882850D02*
X119398752Y-72882850D01*
X119398752Y-72882850D02*
X119208276Y-72835231D01*
X119208276Y-72835231D02*
X119113038Y-72787612D01*
X119113038Y-72787612D02*
X119017800Y-72692374D01*
X119017800Y-72692374D02*
X118970180Y-72549517D01*
X118970180Y-72549517D02*
X118970180Y-72311422D01*
X118970180Y-73311422D02*
X119970180Y-73311422D01*
X119970180Y-73311422D02*
X119970180Y-73549517D01*
X119970180Y-73549517D02*
X119922561Y-73692374D01*
X119922561Y-73692374D02*
X119827323Y-73787612D01*
X119827323Y-73787612D02*
X119732085Y-73835231D01*
X119732085Y-73835231D02*
X119541609Y-73882850D01*
X119541609Y-73882850D02*
X119398752Y-73882850D01*
X119398752Y-73882850D02*
X119208276Y-73835231D01*
X119208276Y-73835231D02*
X119113038Y-73787612D01*
X119113038Y-73787612D02*
X119017800Y-73692374D01*
X119017800Y-73692374D02*
X118970180Y-73549517D01*
X118970180Y-73549517D02*
X118970180Y-73311422D01*
X118970180Y-74882850D02*
X119446371Y-74549517D01*
X118970180Y-74311422D02*
X119970180Y-74311422D01*
X119970180Y-74311422D02*
X119970180Y-74692374D01*
X119970180Y-74692374D02*
X119922561Y-74787612D01*
X119922561Y-74787612D02*
X119874942Y-74835231D01*
X119874942Y-74835231D02*
X119779704Y-74882850D01*
X119779704Y-74882850D02*
X119636847Y-74882850D01*
X119636847Y-74882850D02*
X119541609Y-74835231D01*
X119541609Y-74835231D02*
X119493990Y-74787612D01*
X119493990Y-74787612D02*
X119446371Y-74692374D01*
X119446371Y-74692374D02*
X119446371Y-74311422D01*
X109095895Y-71406660D02*
X109095895Y-71882850D01*
X108810180Y-71311422D02*
X109810180Y-71644755D01*
X109810180Y-71644755D02*
X108810180Y-71978088D01*
X109714942Y-72263803D02*
X109762561Y-72311422D01*
X109762561Y-72311422D02*
X109810180Y-72406660D01*
X109810180Y-72406660D02*
X109810180Y-72644755D01*
X109810180Y-72644755D02*
X109762561Y-72739993D01*
X109762561Y-72739993D02*
X109714942Y-72787612D01*
X109714942Y-72787612D02*
X109619704Y-72835231D01*
X109619704Y-72835231D02*
X109524466Y-72835231D01*
X109524466Y-72835231D02*
X109381609Y-72787612D01*
X109381609Y-72787612D02*
X108810180Y-72216184D01*
X108810180Y-72216184D02*
X108810180Y-72835231D01*
X127542561Y-71978088D02*
X127590180Y-71882850D01*
X127590180Y-71882850D02*
X127590180Y-71739993D01*
X127590180Y-71739993D02*
X127542561Y-71597136D01*
X127542561Y-71597136D02*
X127447323Y-71501898D01*
X127447323Y-71501898D02*
X127352085Y-71454279D01*
X127352085Y-71454279D02*
X127161609Y-71406660D01*
X127161609Y-71406660D02*
X127018752Y-71406660D01*
X127018752Y-71406660D02*
X126828276Y-71454279D01*
X126828276Y-71454279D02*
X126733038Y-71501898D01*
X126733038Y-71501898D02*
X126637800Y-71597136D01*
X126637800Y-71597136D02*
X126590180Y-71739993D01*
X126590180Y-71739993D02*
X126590180Y-71835231D01*
X126590180Y-71835231D02*
X126637800Y-71978088D01*
X126637800Y-71978088D02*
X126685419Y-72025707D01*
X126685419Y-72025707D02*
X127018752Y-72025707D01*
X127018752Y-72025707D02*
X127018752Y-71835231D01*
X126590180Y-72454279D02*
X127590180Y-72454279D01*
X127590180Y-72454279D02*
X126590180Y-73025707D01*
X126590180Y-73025707D02*
X127590180Y-73025707D01*
X126590180Y-73501898D02*
X127590180Y-73501898D01*
X127590180Y-73501898D02*
X127590180Y-73739993D01*
X127590180Y-73739993D02*
X127542561Y-73882850D01*
X127542561Y-73882850D02*
X127447323Y-73978088D01*
X127447323Y-73978088D02*
X127352085Y-74025707D01*
X127352085Y-74025707D02*
X127161609Y-74073326D01*
X127161609Y-74073326D02*
X127018752Y-74073326D01*
X127018752Y-74073326D02*
X126828276Y-74025707D01*
X126828276Y-74025707D02*
X126733038Y-73978088D01*
X126733038Y-73978088D02*
X126637800Y-73882850D01*
X126637800Y-73882850D02*
X126590180Y-73739993D01*
X126590180Y-73739993D02*
X126590180Y-73501898D01*
X114215895Y-71406660D02*
X114215895Y-71882850D01*
X113930180Y-71311422D02*
X114930180Y-71644755D01*
X114930180Y-71644755D02*
X113930180Y-71978088D01*
X114930180Y-72501898D02*
X114930180Y-72597136D01*
X114930180Y-72597136D02*
X114882561Y-72692374D01*
X114882561Y-72692374D02*
X114834942Y-72739993D01*
X114834942Y-72739993D02*
X114739704Y-72787612D01*
X114739704Y-72787612D02*
X114549228Y-72835231D01*
X114549228Y-72835231D02*
X114311133Y-72835231D01*
X114311133Y-72835231D02*
X114120657Y-72787612D01*
X114120657Y-72787612D02*
X114025419Y-72739993D01*
X114025419Y-72739993D02*
X113977800Y-72692374D01*
X113977800Y-72692374D02*
X113930180Y-72597136D01*
X113930180Y-72597136D02*
X113930180Y-72501898D01*
X113930180Y-72501898D02*
X113977800Y-72406660D01*
X113977800Y-72406660D02*
X114025419Y-72359041D01*
X114025419Y-72359041D02*
X114120657Y-72311422D01*
X114120657Y-72311422D02*
X114311133Y-72263803D01*
X114311133Y-72263803D02*
X114549228Y-72263803D01*
X114549228Y-72263803D02*
X114739704Y-72311422D01*
X114739704Y-72311422D02*
X114834942Y-72359041D01*
X114834942Y-72359041D02*
X114882561Y-72406660D01*
X114882561Y-72406660D02*
X114930180Y-72501898D01*
X106555895Y-71406660D02*
X106555895Y-71882850D01*
X106270180Y-71311422D02*
X107270180Y-71644755D01*
X107270180Y-71644755D02*
X106270180Y-71978088D01*
X107270180Y-72216184D02*
X107270180Y-72835231D01*
X107270180Y-72835231D02*
X106889228Y-72501898D01*
X106889228Y-72501898D02*
X106889228Y-72644755D01*
X106889228Y-72644755D02*
X106841609Y-72739993D01*
X106841609Y-72739993D02*
X106793990Y-72787612D01*
X106793990Y-72787612D02*
X106698752Y-72835231D01*
X106698752Y-72835231D02*
X106460657Y-72835231D01*
X106460657Y-72835231D02*
X106365419Y-72787612D01*
X106365419Y-72787612D02*
X106317800Y-72739993D01*
X106317800Y-72739993D02*
X106270180Y-72644755D01*
X106270180Y-72644755D02*
X106270180Y-72359041D01*
X106270180Y-72359041D02*
X106317800Y-72263803D01*
X106317800Y-72263803D02*
X106365419Y-72216184D01*
X102954580Y-135181666D02*
X103002200Y-135229285D01*
X103002200Y-135229285D02*
X103049819Y-135372142D01*
X103049819Y-135372142D02*
X103049819Y-135467380D01*
X103049819Y-135467380D02*
X103002200Y-135610237D01*
X103002200Y-135610237D02*
X102906961Y-135705475D01*
X102906961Y-135705475D02*
X102811723Y-135753094D01*
X102811723Y-135753094D02*
X102621247Y-135800713D01*
X102621247Y-135800713D02*
X102478390Y-135800713D01*
X102478390Y-135800713D02*
X102287914Y-135753094D01*
X102287914Y-135753094D02*
X102192676Y-135705475D01*
X102192676Y-135705475D02*
X102097438Y-135610237D01*
X102097438Y-135610237D02*
X102049819Y-135467380D01*
X102049819Y-135467380D02*
X102049819Y-135372142D01*
X102049819Y-135372142D02*
X102097438Y-135229285D01*
X102097438Y-135229285D02*
X102145057Y-135181666D01*
X103002200Y-134800713D02*
X103049819Y-134657856D01*
X103049819Y-134657856D02*
X103049819Y-134419761D01*
X103049819Y-134419761D02*
X103002200Y-134324523D01*
X103002200Y-134324523D02*
X102954580Y-134276904D01*
X102954580Y-134276904D02*
X102859342Y-134229285D01*
X102859342Y-134229285D02*
X102764104Y-134229285D01*
X102764104Y-134229285D02*
X102668866Y-134276904D01*
X102668866Y-134276904D02*
X102621247Y-134324523D01*
X102621247Y-134324523D02*
X102573628Y-134419761D01*
X102573628Y-134419761D02*
X102526009Y-134610237D01*
X102526009Y-134610237D02*
X102478390Y-134705475D01*
X102478390Y-134705475D02*
X102430771Y-134753094D01*
X102430771Y-134753094D02*
X102335533Y-134800713D01*
X102335533Y-134800713D02*
X102240295Y-134800713D01*
X102240295Y-134800713D02*
X102145057Y-134753094D01*
X102145057Y-134753094D02*
X102097438Y-134705475D01*
X102097438Y-134705475D02*
X102049819Y-134610237D01*
X102049819Y-134610237D02*
X102049819Y-134372142D01*
X102049819Y-134372142D02*
X102097438Y-134229285D01*
X113010714Y-99602295D02*
X113010714Y-98802295D01*
X113010714Y-98802295D02*
X113201190Y-98802295D01*
X113201190Y-98802295D02*
X113315476Y-98840390D01*
X113315476Y-98840390D02*
X113391666Y-98916580D01*
X113391666Y-98916580D02*
X113429761Y-98992771D01*
X113429761Y-98992771D02*
X113467857Y-99145152D01*
X113467857Y-99145152D02*
X113467857Y-99259438D01*
X113467857Y-99259438D02*
X113429761Y-99411819D01*
X113429761Y-99411819D02*
X113391666Y-99488009D01*
X113391666Y-99488009D02*
X113315476Y-99564200D01*
X113315476Y-99564200D02*
X113201190Y-99602295D01*
X113201190Y-99602295D02*
X113010714Y-99602295D01*
X113734523Y-98802295D02*
X114267857Y-98802295D01*
X114267857Y-98802295D02*
X113734523Y-99602295D01*
X113734523Y-99602295D02*
X114267857Y-99602295D01*
X114534523Y-99373723D02*
X114915476Y-99373723D01*
X114458333Y-99602295D02*
X114725000Y-98802295D01*
X114725000Y-98802295D02*
X114991666Y-99602295D01*
X115677380Y-99602295D02*
X115220237Y-99602295D01*
X115448809Y-99602295D02*
X115448809Y-98802295D01*
X115448809Y-98802295D02*
X115372618Y-98916580D01*
X115372618Y-98916580D02*
X115296428Y-98992771D01*
X115296428Y-98992771D02*
X115220237Y-99030866D01*
X116005476Y-86842295D02*
X116005476Y-86042295D01*
X116462619Y-86842295D02*
X116119761Y-86385152D01*
X116462619Y-86042295D02*
X116005476Y-86499438D01*
X107845714Y-99602295D02*
X107845714Y-98802295D01*
X107845714Y-98802295D02*
X108036190Y-98802295D01*
X108036190Y-98802295D02*
X108150476Y-98840390D01*
X108150476Y-98840390D02*
X108226666Y-98916580D01*
X108226666Y-98916580D02*
X108264761Y-98992771D01*
X108264761Y-98992771D02*
X108302857Y-99145152D01*
X108302857Y-99145152D02*
X108302857Y-99259438D01*
X108302857Y-99259438D02*
X108264761Y-99411819D01*
X108264761Y-99411819D02*
X108226666Y-99488009D01*
X108226666Y-99488009D02*
X108150476Y-99564200D01*
X108150476Y-99564200D02*
X108036190Y-99602295D01*
X108036190Y-99602295D02*
X107845714Y-99602295D01*
X108569523Y-98802295D02*
X109102857Y-98802295D01*
X109102857Y-98802295D02*
X108569523Y-99602295D01*
X108569523Y-99602295D02*
X109102857Y-99602295D01*
X109369523Y-99373723D02*
X109750476Y-99373723D01*
X109293333Y-99602295D02*
X109560000Y-98802295D01*
X109560000Y-98802295D02*
X109826666Y-99602295D01*
X110055237Y-98878485D02*
X110093333Y-98840390D01*
X110093333Y-98840390D02*
X110169523Y-98802295D01*
X110169523Y-98802295D02*
X110359999Y-98802295D01*
X110359999Y-98802295D02*
X110436190Y-98840390D01*
X110436190Y-98840390D02*
X110474285Y-98878485D01*
X110474285Y-98878485D02*
X110512380Y-98954676D01*
X110512380Y-98954676D02*
X110512380Y-99030866D01*
X110512380Y-99030866D02*
X110474285Y-99145152D01*
X110474285Y-99145152D02*
X110017142Y-99602295D01*
X110017142Y-99602295D02*
X110512380Y-99602295D01*
X111090476Y-86842295D02*
X111090476Y-86042295D01*
X111547619Y-86842295D02*
X111204761Y-86385152D01*
X111547619Y-86042295D02*
X111090476Y-86499438D01*
X102049819Y-126418332D02*
X103049819Y-126084999D01*
X103049819Y-126084999D02*
X102049819Y-125751666D01*
X102954580Y-124846904D02*
X103002200Y-124894523D01*
X103002200Y-124894523D02*
X103049819Y-125037380D01*
X103049819Y-125037380D02*
X103049819Y-125132618D01*
X103049819Y-125132618D02*
X103002200Y-125275475D01*
X103002200Y-125275475D02*
X102906961Y-125370713D01*
X102906961Y-125370713D02*
X102811723Y-125418332D01*
X102811723Y-125418332D02*
X102621247Y-125465951D01*
X102621247Y-125465951D02*
X102478390Y-125465951D01*
X102478390Y-125465951D02*
X102287914Y-125418332D01*
X102287914Y-125418332D02*
X102192676Y-125370713D01*
X102192676Y-125370713D02*
X102097438Y-125275475D01*
X102097438Y-125275475D02*
X102049819Y-125132618D01*
X102049819Y-125132618D02*
X102049819Y-125037380D01*
X102049819Y-125037380D02*
X102097438Y-124894523D01*
X102097438Y-124894523D02*
X102145057Y-124846904D01*
X102954580Y-123846904D02*
X103002200Y-123894523D01*
X103002200Y-123894523D02*
X103049819Y-124037380D01*
X103049819Y-124037380D02*
X103049819Y-124132618D01*
X103049819Y-124132618D02*
X103002200Y-124275475D01*
X103002200Y-124275475D02*
X102906961Y-124370713D01*
X102906961Y-124370713D02*
X102811723Y-124418332D01*
X102811723Y-124418332D02*
X102621247Y-124465951D01*
X102621247Y-124465951D02*
X102478390Y-124465951D01*
X102478390Y-124465951D02*
X102287914Y-124418332D01*
X102287914Y-124418332D02*
X102192676Y-124370713D01*
X102192676Y-124370713D02*
X102097438Y-124275475D01*
X102097438Y-124275475D02*
X102049819Y-124132618D01*
X102049819Y-124132618D02*
X102049819Y-124037380D01*
X102049819Y-124037380D02*
X102097438Y-123894523D01*
X102097438Y-123894523D02*
X102145057Y-123846904D01*
X102097438Y-145541904D02*
X102049819Y-145637142D01*
X102049819Y-145637142D02*
X102049819Y-145779999D01*
X102049819Y-145779999D02*
X102097438Y-145922856D01*
X102097438Y-145922856D02*
X102192676Y-146018094D01*
X102192676Y-146018094D02*
X102287914Y-146065713D01*
X102287914Y-146065713D02*
X102478390Y-146113332D01*
X102478390Y-146113332D02*
X102621247Y-146113332D01*
X102621247Y-146113332D02*
X102811723Y-146065713D01*
X102811723Y-146065713D02*
X102906961Y-146018094D01*
X102906961Y-146018094D02*
X103002200Y-145922856D01*
X103002200Y-145922856D02*
X103049819Y-145779999D01*
X103049819Y-145779999D02*
X103049819Y-145684761D01*
X103049819Y-145684761D02*
X103002200Y-145541904D01*
X103002200Y-145541904D02*
X102954580Y-145494285D01*
X102954580Y-145494285D02*
X102621247Y-145494285D01*
X102621247Y-145494285D02*
X102621247Y-145684761D01*
X103049819Y-145065713D02*
X102049819Y-145065713D01*
X102049819Y-145065713D02*
X103049819Y-144494285D01*
X103049819Y-144494285D02*
X102049819Y-144494285D01*
X103049819Y-144018094D02*
X102049819Y-144018094D01*
X102049819Y-144018094D02*
X102049819Y-143779999D01*
X102049819Y-143779999D02*
X102097438Y-143637142D01*
X102097438Y-143637142D02*
X102192676Y-143541904D01*
X102192676Y-143541904D02*
X102287914Y-143494285D01*
X102287914Y-143494285D02*
X102478390Y-143446666D01*
X102478390Y-143446666D02*
X102621247Y-143446666D01*
X102621247Y-143446666D02*
X102811723Y-143494285D01*
X102811723Y-143494285D02*
X102906961Y-143541904D01*
X102906961Y-143541904D02*
X103002200Y-143637142D01*
X103002200Y-143637142D02*
X103049819Y-143779999D01*
X103049819Y-143779999D02*
X103049819Y-144018094D01*
D11*
%TO.C,DZA0*%
X116930000Y-88760000D02*
X116930000Y-94200000D01*
X116930000Y-94200000D02*
X119870000Y-94200000D01*
X118400000Y-87740000D02*
X118400000Y-88760000D01*
X118400000Y-90464000D02*
X118400000Y-88760000D01*
X118400000Y-92623000D02*
X118400000Y-94200000D01*
X118400000Y-95220000D02*
X118400000Y-94200000D01*
D12*
X119543000Y-90464000D02*
X117257000Y-90464000D01*
X119543000Y-90464000D02*
X119543000Y-90845000D01*
D11*
X119870000Y-88760000D02*
X116930000Y-88760000D01*
X119870000Y-94200000D02*
X119870000Y-88760000D01*
D13*
X119543000Y-92623000D02*
X117257000Y-92623000D01*
X118400000Y-90464000D01*
X119543000Y-92623000D01*
G36*
X119543000Y-92623000D02*
G01*
X117257000Y-92623000D01*
X118400000Y-90464000D01*
X119543000Y-92623000D01*
G37*
D11*
%TO.C,O6*%
X106000000Y-128410000D02*
G75*
G02*
X103600000Y-128410000I-1200000J0D01*
G01*
X103600000Y-128410000D02*
G75*
G02*
X106000000Y-128410000I1200000J0D01*
G01*
D13*
%TO.C,SW2*%
X103400000Y-108775000D02*
X103400000Y-109275000D01*
X103400000Y-108775000D02*
X103900000Y-108775000D01*
X103400000Y-114075000D02*
X103400000Y-113575000D01*
X103400000Y-114075000D02*
X103900000Y-114075000D01*
X106200000Y-108775000D02*
X105700000Y-108775000D01*
X106200000Y-108775000D02*
X106200000Y-109275000D01*
X106200000Y-114075000D02*
X105700000Y-114075000D01*
X106200000Y-114075000D02*
X106200000Y-113575000D01*
%TO.C,SW3*%
X103400000Y-116440000D02*
X103400000Y-116940000D01*
X103400000Y-116440000D02*
X103900000Y-116440000D01*
X103400000Y-121740000D02*
X103400000Y-121240000D01*
X103400000Y-121740000D02*
X103900000Y-121740000D01*
X106200000Y-116440000D02*
X105700000Y-116440000D01*
X106200000Y-116440000D02*
X106200000Y-116940000D01*
X106200000Y-121740000D02*
X105700000Y-121740000D01*
X106200000Y-121740000D02*
X106200000Y-121240000D01*
D11*
%TO.C,DZA3*%
X103350000Y-88790000D02*
X103350000Y-94230000D01*
X103350000Y-94230000D02*
X106290000Y-94230000D01*
X104820000Y-87770000D02*
X104820000Y-88790000D01*
X104820000Y-90494000D02*
X104820000Y-88790000D01*
X104820000Y-92653000D02*
X104820000Y-94230000D01*
X104820000Y-95250000D02*
X104820000Y-94230000D01*
D12*
X105963000Y-90494000D02*
X103677000Y-90494000D01*
X105963000Y-90494000D02*
X105963000Y-90875000D01*
D11*
X106290000Y-88790000D02*
X103350000Y-88790000D01*
X106290000Y-94230000D02*
X106290000Y-88790000D01*
D13*
X105963000Y-92653000D02*
X103677000Y-92653000D01*
X104820000Y-90494000D01*
X105963000Y-92653000D01*
G36*
X105963000Y-92653000D02*
G01*
X103677000Y-92653000D01*
X104820000Y-90494000D01*
X105963000Y-92653000D01*
G37*
%TO.C,A1*%
X124415000Y-61425000D02*
X124415000Y-61925000D01*
X124415000Y-61425000D02*
X124915000Y-61425000D01*
X124415000Y-64225000D02*
X124415000Y-63725000D01*
X124415000Y-64225000D02*
X124915000Y-64225000D01*
X132315000Y-61425000D02*
X131815000Y-61425000D01*
X132315000Y-61425000D02*
X132315000Y-61925000D01*
X132315000Y-64225000D02*
X131815000Y-64225000D01*
X132315000Y-64225000D02*
X132315000Y-63725000D01*
D11*
%TO.C,A0*%
X114600000Y-104840000D02*
X114600000Y-107510000D01*
X114600000Y-110050000D02*
X114600000Y-148280000D01*
X114600000Y-148280000D02*
X119680000Y-148280000D01*
X117270000Y-107510000D02*
X114600000Y-107510000D01*
X117270000Y-110050000D02*
X114600000Y-110050000D01*
X117270000Y-110050000D02*
X117270000Y-107510000D01*
X117270000Y-110050000D02*
X117270000Y-145610000D01*
X117270000Y-145610000D02*
X114600000Y-145610000D01*
X119680000Y-140400000D02*
X127560000Y-140400000D01*
X119680000Y-148290000D02*
X119680000Y-140400000D01*
X127560000Y-140400000D02*
X127570000Y-148260000D01*
X129970000Y-107510000D02*
X129970000Y-145610000D01*
X129970000Y-107510000D02*
X132640000Y-107510000D01*
X129970000Y-145610000D02*
X132640000Y-145610000D01*
X132640000Y-104840000D02*
X114600000Y-104840000D01*
X132640000Y-148280000D02*
X127560000Y-148280000D01*
X132640000Y-148280000D02*
X132640000Y-104840000D01*
%TO.C,O2*%
X106000000Y-141470000D02*
G75*
G02*
X103600000Y-141470000I-1200000J0D01*
G01*
X103600000Y-141470000D02*
G75*
G02*
X106000000Y-141470000I1200000J0D01*
G01*
D13*
%TO.C,SW1*%
X103400000Y-101110000D02*
X103400000Y-101610000D01*
X103400000Y-101110000D02*
X103900000Y-101110000D01*
X103400000Y-106410000D02*
X103400000Y-105910000D01*
X103400000Y-106410000D02*
X103900000Y-106410000D01*
X106200000Y-101110000D02*
X105700000Y-101110000D01*
X106200000Y-101110000D02*
X106200000Y-101610000D01*
X106200000Y-106410000D02*
X105700000Y-106410000D01*
X106200000Y-106410000D02*
X106200000Y-105910000D01*
D11*
%TO.C,O5*%
X106000000Y-131675000D02*
G75*
G02*
X103600000Y-131675000I-1200000J0D01*
G01*
X103600000Y-131675000D02*
G75*
G02*
X106000000Y-131675000I1200000J0D01*
G01*
D13*
%TO.C,B1*%
X104290000Y-61130000D02*
X104290000Y-61630000D01*
X104290000Y-61130000D02*
X104790000Y-61130000D01*
X104290000Y-63930000D02*
X104290000Y-63430000D01*
X104290000Y-63930000D02*
X104790000Y-63930000D01*
X112190000Y-61130000D02*
X111690000Y-61130000D01*
X112190000Y-61130000D02*
X112190000Y-61630000D01*
X112190000Y-63930000D02*
X111690000Y-63930000D01*
X112190000Y-63930000D02*
X112190000Y-63430000D01*
D11*
%TO.C,O3*%
X106000000Y-138205000D02*
G75*
G02*
X103600000Y-138205000I-1200000J0D01*
G01*
X103600000Y-138205000D02*
G75*
G02*
X106000000Y-138205000I1200000J0D01*
G01*
%TO.C,U1*%
X104185000Y-82039500D02*
X104185000Y-69847500D01*
X129585000Y-67307500D02*
X106725000Y-67307500D01*
X129585000Y-84579500D02*
X106725000Y-84579500D01*
X132125000Y-69847500D02*
X132125000Y-82039500D01*
X104185000Y-69847500D02*
G75*
G02*
X106725000Y-67307500I2540000J0D01*
G01*
X106725000Y-84579500D02*
G75*
G02*
X104185000Y-82039500I0J2540000D01*
G01*
X129585000Y-67307500D02*
G75*
G02*
X132125000Y-69847500I0J-2540000D01*
G01*
X132125000Y-82039500D02*
G75*
G02*
X129585000Y-84579500I-2540000J0D01*
G01*
%TO.C,O4*%
X106000000Y-134940000D02*
G75*
G02*
X103600000Y-134940000I-1200000J0D01*
G01*
X103600000Y-134940000D02*
G75*
G02*
X106000000Y-134940000I1200000J0D01*
G01*
%TO.C,DZA1*%
X112710000Y-88790000D02*
X112710000Y-94230000D01*
X112710000Y-94230000D02*
X115650000Y-94230000D01*
X114180000Y-87770000D02*
X114180000Y-88790000D01*
X114180000Y-90494000D02*
X114180000Y-88790000D01*
X114180000Y-92653000D02*
X114180000Y-94230000D01*
X114180000Y-95250000D02*
X114180000Y-94230000D01*
D12*
X115323000Y-90494000D02*
X113037000Y-90494000D01*
X115323000Y-90494000D02*
X115323000Y-90875000D01*
D11*
X115650000Y-88790000D02*
X112710000Y-88790000D01*
X115650000Y-94230000D02*
X115650000Y-88790000D01*
D13*
X115323000Y-92653000D02*
X113037000Y-92653000D01*
X114180000Y-90494000D01*
X115323000Y-92653000D01*
G36*
X115323000Y-92653000D02*
G01*
X113037000Y-92653000D01*
X114180000Y-90494000D01*
X115323000Y-92653000D01*
G37*
D11*
%TO.C,DZA2*%
X107765000Y-88790000D02*
X107765000Y-94230000D01*
X107765000Y-94230000D02*
X110705000Y-94230000D01*
X109235000Y-87770000D02*
X109235000Y-88790000D01*
X109235000Y-90494000D02*
X109235000Y-88790000D01*
X109235000Y-92653000D02*
X109235000Y-94230000D01*
X109235000Y-95250000D02*
X109235000Y-94230000D01*
D12*
X110378000Y-90494000D02*
X108092000Y-90494000D01*
X110378000Y-90494000D02*
X110378000Y-90875000D01*
D11*
X110705000Y-88790000D02*
X107765000Y-88790000D01*
X110705000Y-94230000D02*
X110705000Y-88790000D01*
D13*
X110378000Y-92653000D02*
X108092000Y-92653000D01*
X109235000Y-90494000D01*
X110378000Y-92653000D01*
G36*
X110378000Y-92653000D02*
G01*
X108092000Y-92653000D01*
X109235000Y-90494000D01*
X110378000Y-92653000D01*
G37*
D11*
%TO.C,O7*%
X106000000Y-125145000D02*
G75*
G02*
X103600000Y-125145000I-1200000J0D01*
G01*
X103600000Y-125145000D02*
G75*
G02*
X106000000Y-125145000I1200000J0D01*
G01*
%TO.C,O1*%
X106000000Y-144735000D02*
G75*
G02*
X103600000Y-144735000I-1200000J0D01*
G01*
X103600000Y-144735000D02*
G75*
G02*
X106000000Y-144735000I1200000J0D01*
G01*
%TD*%
M02*
